G75*
%MOIN*%
%OFA0B0*%
%FSLAX25Y25*%
%IPPOS*%
%LPD*%
%AMOC8*
5,1,8,0,0,1.08239X$1,22.5*
%
%ADD10C,0.12611*%
%ADD11C,0.05524*%
%ADD12R,0.05918X0.07099*%
%ADD13R,0.07099X0.05918*%
%ADD14R,0.05131X0.04737*%
%ADD15R,0.08800X0.03400*%
%ADD16R,0.05524X0.02965*%
%ADD17R,0.04343X0.02178*%
%ADD18R,0.05524X0.05524*%
%ADD19R,0.08674X0.08674*%
%ADD20C,0.04934*%
%ADD21R,0.06706X0.08674*%
%ADD22C,0.04737*%
%ADD23R,0.12611X0.02769*%
%ADD24R,0.06800X0.03800*%
%ADD25R,0.02000X0.04700*%
%ADD26R,0.06706X0.05918*%
%ADD27R,0.03359X0.02769*%
%ADD28R,0.04737X0.01784*%
%ADD29C,0.06706*%
%ADD30C,0.08200*%
%ADD31C,0.03778*%
%ADD32C,0.16611*%
D10*
X0017142Y0022366D03*
X0173638Y0023154D03*
X0173638Y0251500D03*
X0265173Y0349925D03*
X0017142Y0349925D03*
D11*
X0093913Y0043232D03*
X0093913Y0015673D03*
D12*
X0020646Y0112169D03*
X0013165Y0112169D03*
X0213992Y0174728D03*
X0221866Y0174728D03*
X0227772Y0109768D03*
X0235646Y0109768D03*
X0237614Y0070398D03*
X0231709Y0062524D03*
X0229740Y0070398D03*
X0223835Y0062524D03*
D13*
X0225803Y0086146D03*
X0225803Y0094020D03*
X0217929Y0094020D03*
X0217929Y0086146D03*
X0243520Y0044807D03*
X0243520Y0036933D03*
X0251394Y0036933D03*
X0251394Y0044807D03*
X0261236Y0086146D03*
X0261236Y0094020D03*
X0237614Y0166854D03*
X0237614Y0174728D03*
X0229740Y0174728D03*
X0229740Y0166854D03*
X0048638Y0064295D03*
X0048638Y0056815D03*
D14*
X0214583Y0166854D03*
X0221276Y0166854D03*
D15*
X0054832Y0117268D03*
X0054832Y0112268D03*
X0054832Y0107268D03*
X0054832Y0102268D03*
X0030632Y0102268D03*
X0030632Y0107268D03*
X0030632Y0112268D03*
X0030632Y0117268D03*
D16*
X0055252Y0084256D03*
X0055252Y0080516D03*
X0055252Y0076776D03*
X0065488Y0076776D03*
X0065488Y0080516D03*
X0065488Y0084256D03*
D17*
X0042240Y0084276D03*
X0042240Y0086835D03*
X0042240Y0089394D03*
X0042240Y0091953D03*
X0019602Y0091953D03*
X0019602Y0089394D03*
X0019602Y0086835D03*
X0019602Y0084276D03*
D18*
X0207890Y0353862D03*
X0216157Y0353862D03*
X0227575Y0353862D03*
X0235843Y0353862D03*
D19*
X0151886Y0016067D03*
X0130429Y0016067D03*
D20*
X0131610Y0027996D03*
X0150705Y0027996D03*
D21*
X0147024Y0037563D03*
X0135213Y0037563D03*
D22*
X0125409Y0045576D03*
X0119504Y0059187D03*
X0076197Y0086146D03*
X0070291Y0080624D03*
X0013205Y0056618D03*
X0036512Y0192445D03*
X0101748Y0239098D03*
X0101748Y0291461D03*
X0036512Y0338114D03*
X0219583Y0338114D03*
X0219583Y0192445D03*
D23*
X0103126Y0244807D03*
X0103126Y0247957D03*
X0103126Y0251106D03*
X0103126Y0254256D03*
X0103126Y0257406D03*
X0103126Y0260555D03*
X0103126Y0263705D03*
X0103126Y0266854D03*
X0103126Y0270004D03*
X0103126Y0273154D03*
X0103126Y0276303D03*
X0103126Y0279453D03*
X0103126Y0282602D03*
X0103126Y0285752D03*
D24*
X0130157Y0154669D03*
X0130157Y0139669D03*
X0130157Y0115299D03*
X0130157Y0100299D03*
X0112787Y0100299D03*
X0112787Y0115299D03*
X0090787Y0115299D03*
X0090787Y0100299D03*
X0130157Y0075929D03*
X0130157Y0060929D03*
X0152157Y0060929D03*
X0152157Y0075929D03*
X0152157Y0100299D03*
X0152157Y0115299D03*
X0169528Y0115299D03*
X0169528Y0100299D03*
X0191528Y0100299D03*
X0191528Y0115299D03*
X0152157Y0139669D03*
X0152157Y0154669D03*
D25*
X0232004Y0101570D03*
X0234563Y0101570D03*
X0237122Y0101570D03*
X0239681Y0101570D03*
X0242240Y0101570D03*
X0244799Y0101570D03*
X0247358Y0101570D03*
X0249917Y0101570D03*
X0252476Y0101570D03*
X0255035Y0101570D03*
X0255035Y0078595D03*
X0252476Y0078595D03*
X0249917Y0078595D03*
X0247358Y0078595D03*
X0244799Y0078595D03*
X0242240Y0078595D03*
X0239681Y0078595D03*
X0237122Y0078595D03*
X0234563Y0078595D03*
X0232004Y0078595D03*
D26*
X0243520Y0058390D03*
X0243520Y0050909D03*
X0251394Y0050909D03*
X0251394Y0058390D03*
D27*
X0234169Y0148350D03*
X0234169Y0151500D03*
X0234169Y0154650D03*
X0234169Y0157799D03*
X0229248Y0157799D03*
X0229248Y0154650D03*
X0229248Y0151500D03*
X0229248Y0148350D03*
D28*
X0243074Y0149138D03*
X0243074Y0151106D03*
X0243074Y0153075D03*
X0243074Y0147169D03*
X0243074Y0145201D03*
X0259713Y0145201D03*
X0259713Y0147169D03*
X0259713Y0149138D03*
X0259713Y0151106D03*
X0259713Y0153075D03*
D29*
X0265173Y0137327D03*
X0265173Y0129453D03*
X0156906Y0032996D03*
X0125409Y0032996D03*
X0034858Y0066461D03*
X0025016Y0135358D03*
D30*
X0131157Y0334177D03*
X0141157Y0334177D03*
X0151157Y0334177D03*
D31*
X0131315Y0326303D03*
X0129346Y0310555D03*
X0133283Y0302681D03*
X0139189Y0294807D03*
X0139189Y0286933D03*
X0139189Y0279059D03*
X0122949Y0264787D03*
X0118520Y0263311D03*
X0111630Y0265280D03*
X0111630Y0281028D03*
X0151984Y0235752D03*
X0159366Y0218528D03*
X0144602Y0200319D03*
X0123441Y0178665D03*
X0116059Y0189984D03*
X0113106Y0167839D03*
X0109169Y0167839D03*
X0139189Y0123547D03*
X0147588Y0123022D03*
X0146079Y0128961D03*
X0154937Y0107799D03*
X0156906Y0088114D03*
X0174622Y0102386D03*
X0174622Y0113213D03*
X0174622Y0119610D03*
X0192339Y0123547D03*
X0198244Y0119490D03*
X0198266Y0103862D03*
X0195761Y0094020D03*
X0179051Y0088606D03*
X0198244Y0064492D03*
X0201689Y0059079D03*
X0194307Y0058707D03*
X0212024Y0086146D03*
X0221987Y0103862D03*
X0223955Y0109768D03*
X0221987Y0115673D03*
X0212024Y0109768D03*
X0235646Y0086146D03*
X0249917Y0105831D03*
X0253362Y0107799D03*
X0242260Y0109768D03*
X0253362Y0139295D03*
X0249425Y0145201D03*
X0249425Y0151106D03*
X0239114Y0147683D03*
X0235646Y0145201D03*
X0237614Y0160435D03*
X0243520Y0174728D03*
X0209563Y0220004D03*
X0194307Y0209177D03*
X0189386Y0208193D03*
X0182988Y0227878D03*
X0192831Y0243626D03*
X0176591Y0273154D03*
X0180528Y0275002D03*
X0168224Y0268232D03*
X0190862Y0292839D03*
X0206118Y0284965D03*
X0223835Y0273154D03*
X0257791Y0271677D03*
X0262220Y0311047D03*
X0235154Y0340575D03*
X0227772Y0357799D03*
X0215961Y0357799D03*
X0208087Y0340575D03*
X0184465Y0336146D03*
X0180528Y0332209D03*
X0176591Y0336146D03*
X0056020Y0346972D03*
X0171669Y0178173D03*
X0165764Y0158488D03*
X0172161Y0059079D03*
X0107693Y0054650D03*
X0107693Y0042839D03*
X0066354Y0043331D03*
X0054543Y0072366D03*
X0045193Y0095004D03*
X0031413Y0097957D03*
X0026984Y0084177D03*
X0060941Y0109768D03*
X0067339Y0112720D03*
X0073244Y0118626D03*
X0070291Y0121087D03*
X0237614Y0058587D03*
X0259268Y0058587D03*
D32*
X0264189Y0023154D03*
X0264189Y0251500D03*
M02*
