G75*
%MOIN*%
%OFA0B0*%
%FSLAX25Y25*%
%IPPOS*%
%LPD*%
%AMOC8*
5,1,8,0,0,1.08239X$1,22.5*
%
%ADD10R,0.05118X0.06299*%
%ADD11R,0.06299X0.05118*%
%ADD12R,0.04331X0.03937*%
%ADD13R,0.08000X0.02600*%
%ADD14R,0.04724X0.02165*%
%ADD15R,0.03543X0.01378*%
%ADD16R,0.04724X0.04724*%
%ADD17R,0.05906X0.07874*%
%ADD18R,0.11811X0.01969*%
%ADD19R,0.06000X0.03000*%
%ADD20R,0.01200X0.03900*%
%ADD21R,0.05906X0.05118*%
%ADD22R,0.02559X0.01969*%
%ADD23R,0.03937X0.00984*%
D10*
X0013165Y0112169D03*
X0020646Y0112169D03*
X0213992Y0174728D03*
X0221866Y0174728D03*
X0227772Y0109768D03*
X0235646Y0109768D03*
X0237614Y0070398D03*
X0231709Y0062524D03*
X0229740Y0070398D03*
X0223835Y0062524D03*
D11*
X0048638Y0056815D03*
X0048638Y0064295D03*
X0217929Y0086146D03*
X0217929Y0094020D03*
X0225803Y0094020D03*
X0225803Y0086146D03*
X0243520Y0044807D03*
X0243520Y0036933D03*
X0251394Y0036933D03*
X0251394Y0044807D03*
X0261236Y0086146D03*
X0261236Y0094020D03*
X0237614Y0166854D03*
X0237614Y0174728D03*
X0229740Y0174728D03*
X0229740Y0166854D03*
D12*
X0221276Y0166854D03*
X0214583Y0166854D03*
D13*
X0054832Y0117268D03*
X0054832Y0112268D03*
X0054832Y0107268D03*
X0054832Y0102268D03*
X0030632Y0102268D03*
X0030632Y0107268D03*
X0030632Y0112268D03*
X0030632Y0117268D03*
D14*
X0055252Y0084256D03*
X0055252Y0080516D03*
X0055252Y0076776D03*
X0065488Y0076776D03*
X0065488Y0080516D03*
X0065488Y0084256D03*
D15*
X0042240Y0084276D03*
X0042240Y0086835D03*
X0042240Y0089394D03*
X0042240Y0091953D03*
X0019602Y0091953D03*
X0019602Y0089394D03*
X0019602Y0086835D03*
X0019602Y0084276D03*
D16*
X0207890Y0353862D03*
X0216157Y0353862D03*
X0227575Y0353862D03*
X0235843Y0353862D03*
D17*
X0147024Y0037563D03*
X0135213Y0037563D03*
D18*
X0103126Y0244807D03*
X0103126Y0247957D03*
X0103126Y0251106D03*
X0103126Y0254256D03*
X0103126Y0257406D03*
X0103126Y0260555D03*
X0103126Y0263705D03*
X0103126Y0266854D03*
X0103126Y0270004D03*
X0103126Y0273154D03*
X0103126Y0276303D03*
X0103126Y0279453D03*
X0103126Y0282602D03*
X0103126Y0285752D03*
D19*
X0130157Y0154669D03*
X0130157Y0139669D03*
X0130157Y0115299D03*
X0130157Y0100299D03*
X0112787Y0100299D03*
X0112787Y0115299D03*
X0090787Y0115299D03*
X0090787Y0100299D03*
X0130157Y0075929D03*
X0130157Y0060929D03*
X0152157Y0060929D03*
X0152157Y0075929D03*
X0152157Y0100299D03*
X0152157Y0115299D03*
X0169528Y0115299D03*
X0169528Y0100299D03*
X0191528Y0100299D03*
X0191528Y0115299D03*
X0152157Y0139669D03*
X0152157Y0154669D03*
D20*
X0232004Y0101570D03*
X0234563Y0101570D03*
X0237122Y0101570D03*
X0239681Y0101570D03*
X0242240Y0101570D03*
X0244799Y0101570D03*
X0247358Y0101570D03*
X0249917Y0101570D03*
X0252476Y0101570D03*
X0255035Y0101570D03*
X0255035Y0078595D03*
X0252476Y0078595D03*
X0249917Y0078595D03*
X0247358Y0078595D03*
X0244799Y0078595D03*
X0242240Y0078595D03*
X0239681Y0078595D03*
X0237122Y0078595D03*
X0234563Y0078595D03*
X0232004Y0078595D03*
D21*
X0243520Y0058390D03*
X0243520Y0050909D03*
X0251394Y0050909D03*
X0251394Y0058390D03*
D22*
X0234169Y0148350D03*
X0234169Y0151500D03*
X0234169Y0154650D03*
X0234169Y0157799D03*
X0229248Y0157799D03*
X0229248Y0154650D03*
X0229248Y0151500D03*
X0229248Y0148350D03*
D23*
X0243074Y0149138D03*
X0243074Y0151106D03*
X0243074Y0153075D03*
X0243074Y0147169D03*
X0243074Y0145201D03*
X0259713Y0145201D03*
X0259713Y0147169D03*
X0259713Y0149138D03*
X0259713Y0151106D03*
X0259713Y0153075D03*
M02*
