%
M48
M72
T01C0.0138
T02C0.0394
T03C0.0400
T04C0.0413
T05C0.0472
T06C0.0787
T07C0.1181
%
T01
X1320Y5662
X2698Y8418
X3141Y9796
X4519Y9500
X6094Y10977
X6734Y11272
X7324Y11863
X7029Y12109
X7620Y8615
X7029Y8062
X5454Y7237
X3486Y6646
X6635Y4333
X10769Y4284
X10769Y5465
X11950Y5919
X12541Y4558
X12541Y3300
X15691Y3300
X17216Y5908
X19431Y5871
X19824Y6449
X20169Y5908
X21202Y8615
X22199Y10386
X22396Y10977
X22199Y11567
X21202Y10977
X19827Y10386
X19576Y9402
X17905Y8861
X17462Y10239
X17462Y11321
X17462Y11961
X19234Y12355
X19824Y11949
X16576Y15849
X17167Y17817
X18939Y20819
X19431Y20918
X20956Y22000
X19283Y24363
X18299Y22788
X15937Y21853
X15198Y23575
X16822Y26823
X17659Y27315
X18053Y27500
X19086Y29284
X20612Y28496
X22383Y27315
X25779Y27168
X26222Y31105
X23515Y34057
X22777Y35780
X21596Y35780
X20809Y34057
X18446Y33615
X18053Y33221
X17659Y33615
X13919Y29481
X13919Y28693
X13919Y27906
X12295Y26479
X11852Y26331
X11163Y26528
X11163Y28103
X13328Y30268
X12935Y31056
X13131Y32630
X5602Y34697
X14460Y20032
X12344Y17867
X11606Y18998
X11311Y16784
X10917Y16784
X13919Y12355
X14759Y12302
X14608Y12896
X15494Y10780
X15691Y8811
X23565Y8615
X24992Y10583
X25336Y10780
X24226Y10977
X25336Y13930
X24943Y14520
X24943Y15111
X23911Y14768
X23565Y14520
X23761Y16043
X24352Y17473
X23761Y5859
X25927Y5859
X2502Y13536
T02
X3651Y19244
X10175Y23910
X10175Y29146
X3651Y33811
X21958Y33811
X21958Y19244
T03
X15116Y33418
X14116Y33418
X13116Y33418
T04
X13161Y2800
X15070Y2800
T05
X15189Y1607
X13043Y1607
X9391Y1567
X9391Y4323
T06
X17364Y2315
X17364Y25150
T07
X1714Y2237
X26419Y2315
X26419Y25150
X26517Y34993
X1714Y34993
M30
