G75*
%MOIN*%
%OFA0B0*%
%FSLAX25Y25*%
%IPPOS*%
%LPD*%
%AMOC8*
5,1,8,0,0,1.08239X$1,22.5*
%
%ADD10C,0.00000*%
D10*
X0015173Y0009374D02*
X0267142Y0009374D01*
X0267427Y0009377D01*
X0267713Y0009388D01*
X0267998Y0009405D01*
X0268282Y0009429D01*
X0268566Y0009460D01*
X0268849Y0009498D01*
X0269130Y0009543D01*
X0269411Y0009594D01*
X0269691Y0009652D01*
X0269969Y0009717D01*
X0270245Y0009789D01*
X0270519Y0009867D01*
X0270792Y0009952D01*
X0271062Y0010044D01*
X0271330Y0010142D01*
X0271596Y0010246D01*
X0271859Y0010357D01*
X0272119Y0010474D01*
X0272377Y0010597D01*
X0272631Y0010727D01*
X0272882Y0010863D01*
X0273130Y0011004D01*
X0273374Y0011152D01*
X0273615Y0011305D01*
X0273851Y0011465D01*
X0274084Y0011630D01*
X0274313Y0011800D01*
X0274538Y0011976D01*
X0274758Y0012158D01*
X0274974Y0012344D01*
X0275185Y0012536D01*
X0275392Y0012733D01*
X0275594Y0012935D01*
X0275791Y0013142D01*
X0275983Y0013353D01*
X0276169Y0013569D01*
X0276351Y0013789D01*
X0276527Y0014014D01*
X0276697Y0014243D01*
X0276862Y0014476D01*
X0277022Y0014712D01*
X0277175Y0014953D01*
X0277323Y0015197D01*
X0277464Y0015445D01*
X0277600Y0015696D01*
X0277730Y0015950D01*
X0277853Y0016208D01*
X0277970Y0016468D01*
X0278081Y0016731D01*
X0278185Y0016997D01*
X0278283Y0017265D01*
X0278375Y0017535D01*
X0278460Y0017808D01*
X0278538Y0018082D01*
X0278610Y0018358D01*
X0278675Y0018636D01*
X0278733Y0018916D01*
X0278784Y0019197D01*
X0278829Y0019478D01*
X0278867Y0019761D01*
X0278898Y0020045D01*
X0278922Y0020329D01*
X0278939Y0020614D01*
X0278950Y0020900D01*
X0278953Y0021185D01*
X0278953Y0351894D01*
X0278950Y0352179D01*
X0278939Y0352465D01*
X0278922Y0352750D01*
X0278898Y0353034D01*
X0278867Y0353318D01*
X0278829Y0353601D01*
X0278784Y0353882D01*
X0278733Y0354163D01*
X0278675Y0354443D01*
X0278610Y0354721D01*
X0278538Y0354997D01*
X0278460Y0355271D01*
X0278375Y0355544D01*
X0278283Y0355814D01*
X0278185Y0356082D01*
X0278081Y0356348D01*
X0277970Y0356611D01*
X0277853Y0356871D01*
X0277730Y0357129D01*
X0277600Y0357383D01*
X0277464Y0357634D01*
X0277323Y0357882D01*
X0277175Y0358126D01*
X0277022Y0358367D01*
X0276862Y0358603D01*
X0276697Y0358836D01*
X0276527Y0359065D01*
X0276351Y0359290D01*
X0276169Y0359510D01*
X0275983Y0359726D01*
X0275791Y0359937D01*
X0275594Y0360144D01*
X0275392Y0360346D01*
X0275185Y0360543D01*
X0274974Y0360735D01*
X0274758Y0360921D01*
X0274538Y0361103D01*
X0274313Y0361279D01*
X0274084Y0361449D01*
X0273851Y0361614D01*
X0273615Y0361774D01*
X0273374Y0361927D01*
X0273130Y0362075D01*
X0272882Y0362216D01*
X0272631Y0362352D01*
X0272377Y0362482D01*
X0272119Y0362605D01*
X0271859Y0362722D01*
X0271596Y0362833D01*
X0271330Y0362937D01*
X0271062Y0363035D01*
X0270792Y0363127D01*
X0270519Y0363212D01*
X0270245Y0363290D01*
X0269969Y0363362D01*
X0269691Y0363427D01*
X0269411Y0363485D01*
X0269130Y0363536D01*
X0268849Y0363581D01*
X0268566Y0363619D01*
X0268282Y0363650D01*
X0267998Y0363674D01*
X0267713Y0363691D01*
X0267427Y0363702D01*
X0267142Y0363705D01*
X0015173Y0363705D01*
X0014888Y0363702D01*
X0014602Y0363691D01*
X0014317Y0363674D01*
X0014033Y0363650D01*
X0013749Y0363619D01*
X0013466Y0363581D01*
X0013185Y0363536D01*
X0012904Y0363485D01*
X0012624Y0363427D01*
X0012346Y0363362D01*
X0012070Y0363290D01*
X0011796Y0363212D01*
X0011523Y0363127D01*
X0011253Y0363035D01*
X0010985Y0362937D01*
X0010719Y0362833D01*
X0010456Y0362722D01*
X0010196Y0362605D01*
X0009938Y0362482D01*
X0009684Y0362352D01*
X0009433Y0362216D01*
X0009185Y0362075D01*
X0008941Y0361927D01*
X0008700Y0361774D01*
X0008464Y0361614D01*
X0008231Y0361449D01*
X0008002Y0361279D01*
X0007777Y0361103D01*
X0007557Y0360921D01*
X0007341Y0360735D01*
X0007130Y0360543D01*
X0006923Y0360346D01*
X0006721Y0360144D01*
X0006524Y0359937D01*
X0006332Y0359726D01*
X0006146Y0359510D01*
X0005964Y0359290D01*
X0005788Y0359065D01*
X0005618Y0358836D01*
X0005453Y0358603D01*
X0005293Y0358367D01*
X0005140Y0358126D01*
X0004992Y0357882D01*
X0004851Y0357634D01*
X0004715Y0357383D01*
X0004585Y0357129D01*
X0004462Y0356871D01*
X0004345Y0356611D01*
X0004234Y0356348D01*
X0004130Y0356082D01*
X0004032Y0355814D01*
X0003940Y0355544D01*
X0003855Y0355271D01*
X0003777Y0354997D01*
X0003705Y0354721D01*
X0003640Y0354443D01*
X0003582Y0354163D01*
X0003531Y0353882D01*
X0003486Y0353601D01*
X0003448Y0353318D01*
X0003417Y0353034D01*
X0003393Y0352750D01*
X0003376Y0352465D01*
X0003365Y0352179D01*
X0003362Y0351894D01*
X0003362Y0021185D01*
X0003365Y0020900D01*
X0003376Y0020614D01*
X0003393Y0020329D01*
X0003417Y0020045D01*
X0003448Y0019761D01*
X0003486Y0019478D01*
X0003531Y0019197D01*
X0003582Y0018916D01*
X0003640Y0018636D01*
X0003705Y0018358D01*
X0003777Y0018082D01*
X0003855Y0017808D01*
X0003940Y0017535D01*
X0004032Y0017265D01*
X0004130Y0016997D01*
X0004234Y0016731D01*
X0004345Y0016468D01*
X0004462Y0016208D01*
X0004585Y0015950D01*
X0004715Y0015696D01*
X0004851Y0015445D01*
X0004992Y0015197D01*
X0005140Y0014953D01*
X0005293Y0014712D01*
X0005453Y0014476D01*
X0005618Y0014243D01*
X0005788Y0014014D01*
X0005964Y0013789D01*
X0006146Y0013569D01*
X0006332Y0013353D01*
X0006524Y0013142D01*
X0006721Y0012935D01*
X0006923Y0012733D01*
X0007130Y0012536D01*
X0007341Y0012344D01*
X0007557Y0012158D01*
X0007777Y0011976D01*
X0008002Y0011800D01*
X0008231Y0011630D01*
X0008464Y0011465D01*
X0008700Y0011305D01*
X0008941Y0011152D01*
X0009185Y0011004D01*
X0009433Y0010863D01*
X0009684Y0010727D01*
X0009938Y0010597D01*
X0010196Y0010474D01*
X0010456Y0010357D01*
X0010719Y0010246D01*
X0010985Y0010142D01*
X0011253Y0010044D01*
X0011523Y0009952D01*
X0011796Y0009867D01*
X0012070Y0009789D01*
X0012346Y0009717D01*
X0012624Y0009652D01*
X0012904Y0009594D01*
X0013185Y0009543D01*
X0013466Y0009498D01*
X0013749Y0009460D01*
X0014033Y0009429D01*
X0014317Y0009405D01*
X0014602Y0009388D01*
X0014888Y0009377D01*
X0015173Y0009374D01*
X0011236Y0022366D02*
X0011238Y0022519D01*
X0011244Y0022673D01*
X0011254Y0022826D01*
X0011268Y0022978D01*
X0011286Y0023131D01*
X0011308Y0023282D01*
X0011333Y0023433D01*
X0011363Y0023584D01*
X0011397Y0023734D01*
X0011434Y0023882D01*
X0011475Y0024030D01*
X0011520Y0024176D01*
X0011569Y0024322D01*
X0011622Y0024466D01*
X0011678Y0024608D01*
X0011738Y0024749D01*
X0011802Y0024889D01*
X0011869Y0025027D01*
X0011940Y0025163D01*
X0012015Y0025297D01*
X0012092Y0025429D01*
X0012174Y0025559D01*
X0012258Y0025687D01*
X0012346Y0025813D01*
X0012437Y0025936D01*
X0012531Y0026057D01*
X0012629Y0026175D01*
X0012729Y0026291D01*
X0012833Y0026404D01*
X0012939Y0026515D01*
X0013048Y0026623D01*
X0013160Y0026728D01*
X0013274Y0026829D01*
X0013392Y0026928D01*
X0013511Y0027024D01*
X0013633Y0027117D01*
X0013758Y0027206D01*
X0013885Y0027293D01*
X0014014Y0027375D01*
X0014145Y0027455D01*
X0014278Y0027531D01*
X0014413Y0027604D01*
X0014550Y0027673D01*
X0014689Y0027738D01*
X0014829Y0027800D01*
X0014971Y0027858D01*
X0015114Y0027913D01*
X0015259Y0027964D01*
X0015405Y0028011D01*
X0015552Y0028054D01*
X0015700Y0028093D01*
X0015849Y0028129D01*
X0015999Y0028160D01*
X0016150Y0028188D01*
X0016301Y0028212D01*
X0016454Y0028232D01*
X0016606Y0028248D01*
X0016759Y0028260D01*
X0016912Y0028268D01*
X0017065Y0028272D01*
X0017219Y0028272D01*
X0017372Y0028268D01*
X0017525Y0028260D01*
X0017678Y0028248D01*
X0017830Y0028232D01*
X0017983Y0028212D01*
X0018134Y0028188D01*
X0018285Y0028160D01*
X0018435Y0028129D01*
X0018584Y0028093D01*
X0018732Y0028054D01*
X0018879Y0028011D01*
X0019025Y0027964D01*
X0019170Y0027913D01*
X0019313Y0027858D01*
X0019455Y0027800D01*
X0019595Y0027738D01*
X0019734Y0027673D01*
X0019871Y0027604D01*
X0020006Y0027531D01*
X0020139Y0027455D01*
X0020270Y0027375D01*
X0020399Y0027293D01*
X0020526Y0027206D01*
X0020651Y0027117D01*
X0020773Y0027024D01*
X0020892Y0026928D01*
X0021010Y0026829D01*
X0021124Y0026728D01*
X0021236Y0026623D01*
X0021345Y0026515D01*
X0021451Y0026404D01*
X0021555Y0026291D01*
X0021655Y0026175D01*
X0021753Y0026057D01*
X0021847Y0025936D01*
X0021938Y0025813D01*
X0022026Y0025687D01*
X0022110Y0025559D01*
X0022192Y0025429D01*
X0022269Y0025297D01*
X0022344Y0025163D01*
X0022415Y0025027D01*
X0022482Y0024889D01*
X0022546Y0024749D01*
X0022606Y0024608D01*
X0022662Y0024466D01*
X0022715Y0024322D01*
X0022764Y0024176D01*
X0022809Y0024030D01*
X0022850Y0023882D01*
X0022887Y0023734D01*
X0022921Y0023584D01*
X0022951Y0023433D01*
X0022976Y0023282D01*
X0022998Y0023131D01*
X0023016Y0022978D01*
X0023030Y0022826D01*
X0023040Y0022673D01*
X0023046Y0022519D01*
X0023048Y0022366D01*
X0023046Y0022213D01*
X0023040Y0022059D01*
X0023030Y0021906D01*
X0023016Y0021754D01*
X0022998Y0021601D01*
X0022976Y0021450D01*
X0022951Y0021299D01*
X0022921Y0021148D01*
X0022887Y0020998D01*
X0022850Y0020850D01*
X0022809Y0020702D01*
X0022764Y0020556D01*
X0022715Y0020410D01*
X0022662Y0020266D01*
X0022606Y0020124D01*
X0022546Y0019983D01*
X0022482Y0019843D01*
X0022415Y0019705D01*
X0022344Y0019569D01*
X0022269Y0019435D01*
X0022192Y0019303D01*
X0022110Y0019173D01*
X0022026Y0019045D01*
X0021938Y0018919D01*
X0021847Y0018796D01*
X0021753Y0018675D01*
X0021655Y0018557D01*
X0021555Y0018441D01*
X0021451Y0018328D01*
X0021345Y0018217D01*
X0021236Y0018109D01*
X0021124Y0018004D01*
X0021010Y0017903D01*
X0020892Y0017804D01*
X0020773Y0017708D01*
X0020651Y0017615D01*
X0020526Y0017526D01*
X0020399Y0017439D01*
X0020270Y0017357D01*
X0020139Y0017277D01*
X0020006Y0017201D01*
X0019871Y0017128D01*
X0019734Y0017059D01*
X0019595Y0016994D01*
X0019455Y0016932D01*
X0019313Y0016874D01*
X0019170Y0016819D01*
X0019025Y0016768D01*
X0018879Y0016721D01*
X0018732Y0016678D01*
X0018584Y0016639D01*
X0018435Y0016603D01*
X0018285Y0016572D01*
X0018134Y0016544D01*
X0017983Y0016520D01*
X0017830Y0016500D01*
X0017678Y0016484D01*
X0017525Y0016472D01*
X0017372Y0016464D01*
X0017219Y0016460D01*
X0017065Y0016460D01*
X0016912Y0016464D01*
X0016759Y0016472D01*
X0016606Y0016484D01*
X0016454Y0016500D01*
X0016301Y0016520D01*
X0016150Y0016544D01*
X0015999Y0016572D01*
X0015849Y0016603D01*
X0015700Y0016639D01*
X0015552Y0016678D01*
X0015405Y0016721D01*
X0015259Y0016768D01*
X0015114Y0016819D01*
X0014971Y0016874D01*
X0014829Y0016932D01*
X0014689Y0016994D01*
X0014550Y0017059D01*
X0014413Y0017128D01*
X0014278Y0017201D01*
X0014145Y0017277D01*
X0014014Y0017357D01*
X0013885Y0017439D01*
X0013758Y0017526D01*
X0013633Y0017615D01*
X0013511Y0017708D01*
X0013392Y0017804D01*
X0013274Y0017903D01*
X0013160Y0018004D01*
X0013048Y0018109D01*
X0012939Y0018217D01*
X0012833Y0018328D01*
X0012729Y0018441D01*
X0012629Y0018557D01*
X0012531Y0018675D01*
X0012437Y0018796D01*
X0012346Y0018919D01*
X0012258Y0019045D01*
X0012174Y0019173D01*
X0012092Y0019303D01*
X0012015Y0019435D01*
X0011940Y0019569D01*
X0011869Y0019705D01*
X0011802Y0019843D01*
X0011738Y0019983D01*
X0011678Y0020124D01*
X0011622Y0020266D01*
X0011569Y0020410D01*
X0011520Y0020556D01*
X0011475Y0020702D01*
X0011434Y0020850D01*
X0011397Y0020998D01*
X0011363Y0021148D01*
X0011333Y0021299D01*
X0011308Y0021450D01*
X0011286Y0021601D01*
X0011268Y0021754D01*
X0011254Y0021906D01*
X0011244Y0022059D01*
X0011238Y0022213D01*
X0011236Y0022366D01*
X0091551Y0015673D02*
X0091553Y0015770D01*
X0091559Y0015867D01*
X0091569Y0015963D01*
X0091583Y0016059D01*
X0091601Y0016155D01*
X0091622Y0016249D01*
X0091648Y0016343D01*
X0091677Y0016435D01*
X0091711Y0016526D01*
X0091747Y0016616D01*
X0091788Y0016704D01*
X0091832Y0016790D01*
X0091880Y0016875D01*
X0091931Y0016957D01*
X0091985Y0017038D01*
X0092043Y0017116D01*
X0092104Y0017191D01*
X0092167Y0017264D01*
X0092234Y0017335D01*
X0092304Y0017402D01*
X0092376Y0017467D01*
X0092451Y0017528D01*
X0092529Y0017587D01*
X0092608Y0017642D01*
X0092690Y0017694D01*
X0092774Y0017742D01*
X0092860Y0017787D01*
X0092948Y0017829D01*
X0093037Y0017867D01*
X0093128Y0017901D01*
X0093220Y0017931D01*
X0093313Y0017958D01*
X0093408Y0017980D01*
X0093503Y0017999D01*
X0093599Y0018014D01*
X0093695Y0018025D01*
X0093792Y0018032D01*
X0093889Y0018035D01*
X0093986Y0018034D01*
X0094083Y0018029D01*
X0094179Y0018020D01*
X0094275Y0018007D01*
X0094371Y0017990D01*
X0094466Y0017969D01*
X0094559Y0017945D01*
X0094652Y0017916D01*
X0094744Y0017884D01*
X0094834Y0017848D01*
X0094922Y0017809D01*
X0095009Y0017765D01*
X0095094Y0017719D01*
X0095177Y0017668D01*
X0095258Y0017615D01*
X0095336Y0017558D01*
X0095413Y0017498D01*
X0095486Y0017435D01*
X0095557Y0017369D01*
X0095625Y0017300D01*
X0095691Y0017228D01*
X0095753Y0017154D01*
X0095812Y0017077D01*
X0095868Y0016998D01*
X0095921Y0016916D01*
X0095971Y0016833D01*
X0096016Y0016747D01*
X0096059Y0016660D01*
X0096098Y0016571D01*
X0096133Y0016481D01*
X0096164Y0016389D01*
X0096191Y0016296D01*
X0096215Y0016202D01*
X0096235Y0016107D01*
X0096251Y0016011D01*
X0096263Y0015915D01*
X0096271Y0015818D01*
X0096275Y0015721D01*
X0096275Y0015625D01*
X0096271Y0015528D01*
X0096263Y0015431D01*
X0096251Y0015335D01*
X0096235Y0015239D01*
X0096215Y0015144D01*
X0096191Y0015050D01*
X0096164Y0014957D01*
X0096133Y0014865D01*
X0096098Y0014775D01*
X0096059Y0014686D01*
X0096016Y0014599D01*
X0095971Y0014513D01*
X0095921Y0014430D01*
X0095868Y0014348D01*
X0095812Y0014269D01*
X0095753Y0014192D01*
X0095691Y0014118D01*
X0095625Y0014046D01*
X0095557Y0013977D01*
X0095486Y0013911D01*
X0095413Y0013848D01*
X0095336Y0013788D01*
X0095258Y0013731D01*
X0095177Y0013678D01*
X0095094Y0013627D01*
X0095009Y0013581D01*
X0094922Y0013537D01*
X0094834Y0013498D01*
X0094744Y0013462D01*
X0094652Y0013430D01*
X0094559Y0013401D01*
X0094466Y0013377D01*
X0094371Y0013356D01*
X0094275Y0013339D01*
X0094179Y0013326D01*
X0094083Y0013317D01*
X0093986Y0013312D01*
X0093889Y0013311D01*
X0093792Y0013314D01*
X0093695Y0013321D01*
X0093599Y0013332D01*
X0093503Y0013347D01*
X0093408Y0013366D01*
X0093313Y0013388D01*
X0093220Y0013415D01*
X0093128Y0013445D01*
X0093037Y0013479D01*
X0092948Y0013517D01*
X0092860Y0013559D01*
X0092774Y0013604D01*
X0092690Y0013652D01*
X0092608Y0013704D01*
X0092529Y0013759D01*
X0092451Y0013818D01*
X0092376Y0013879D01*
X0092304Y0013944D01*
X0092234Y0014011D01*
X0092167Y0014082D01*
X0092104Y0014155D01*
X0092043Y0014230D01*
X0091985Y0014308D01*
X0091931Y0014389D01*
X0091880Y0014471D01*
X0091832Y0014556D01*
X0091788Y0014642D01*
X0091747Y0014730D01*
X0091711Y0014820D01*
X0091677Y0014911D01*
X0091648Y0015003D01*
X0091622Y0015097D01*
X0091601Y0015191D01*
X0091583Y0015287D01*
X0091569Y0015383D01*
X0091559Y0015479D01*
X0091553Y0015576D01*
X0091551Y0015673D01*
X0091551Y0043232D02*
X0091553Y0043329D01*
X0091559Y0043426D01*
X0091569Y0043522D01*
X0091583Y0043618D01*
X0091601Y0043714D01*
X0091622Y0043808D01*
X0091648Y0043902D01*
X0091677Y0043994D01*
X0091711Y0044085D01*
X0091747Y0044175D01*
X0091788Y0044263D01*
X0091832Y0044349D01*
X0091880Y0044434D01*
X0091931Y0044516D01*
X0091985Y0044597D01*
X0092043Y0044675D01*
X0092104Y0044750D01*
X0092167Y0044823D01*
X0092234Y0044894D01*
X0092304Y0044961D01*
X0092376Y0045026D01*
X0092451Y0045087D01*
X0092529Y0045146D01*
X0092608Y0045201D01*
X0092690Y0045253D01*
X0092774Y0045301D01*
X0092860Y0045346D01*
X0092948Y0045388D01*
X0093037Y0045426D01*
X0093128Y0045460D01*
X0093220Y0045490D01*
X0093313Y0045517D01*
X0093408Y0045539D01*
X0093503Y0045558D01*
X0093599Y0045573D01*
X0093695Y0045584D01*
X0093792Y0045591D01*
X0093889Y0045594D01*
X0093986Y0045593D01*
X0094083Y0045588D01*
X0094179Y0045579D01*
X0094275Y0045566D01*
X0094371Y0045549D01*
X0094466Y0045528D01*
X0094559Y0045504D01*
X0094652Y0045475D01*
X0094744Y0045443D01*
X0094834Y0045407D01*
X0094922Y0045368D01*
X0095009Y0045324D01*
X0095094Y0045278D01*
X0095177Y0045227D01*
X0095258Y0045174D01*
X0095336Y0045117D01*
X0095413Y0045057D01*
X0095486Y0044994D01*
X0095557Y0044928D01*
X0095625Y0044859D01*
X0095691Y0044787D01*
X0095753Y0044713D01*
X0095812Y0044636D01*
X0095868Y0044557D01*
X0095921Y0044475D01*
X0095971Y0044392D01*
X0096016Y0044306D01*
X0096059Y0044219D01*
X0096098Y0044130D01*
X0096133Y0044040D01*
X0096164Y0043948D01*
X0096191Y0043855D01*
X0096215Y0043761D01*
X0096235Y0043666D01*
X0096251Y0043570D01*
X0096263Y0043474D01*
X0096271Y0043377D01*
X0096275Y0043280D01*
X0096275Y0043184D01*
X0096271Y0043087D01*
X0096263Y0042990D01*
X0096251Y0042894D01*
X0096235Y0042798D01*
X0096215Y0042703D01*
X0096191Y0042609D01*
X0096164Y0042516D01*
X0096133Y0042424D01*
X0096098Y0042334D01*
X0096059Y0042245D01*
X0096016Y0042158D01*
X0095971Y0042072D01*
X0095921Y0041989D01*
X0095868Y0041907D01*
X0095812Y0041828D01*
X0095753Y0041751D01*
X0095691Y0041677D01*
X0095625Y0041605D01*
X0095557Y0041536D01*
X0095486Y0041470D01*
X0095413Y0041407D01*
X0095336Y0041347D01*
X0095258Y0041290D01*
X0095177Y0041237D01*
X0095094Y0041186D01*
X0095009Y0041140D01*
X0094922Y0041096D01*
X0094834Y0041057D01*
X0094744Y0041021D01*
X0094652Y0040989D01*
X0094559Y0040960D01*
X0094466Y0040936D01*
X0094371Y0040915D01*
X0094275Y0040898D01*
X0094179Y0040885D01*
X0094083Y0040876D01*
X0093986Y0040871D01*
X0093889Y0040870D01*
X0093792Y0040873D01*
X0093695Y0040880D01*
X0093599Y0040891D01*
X0093503Y0040906D01*
X0093408Y0040925D01*
X0093313Y0040947D01*
X0093220Y0040974D01*
X0093128Y0041004D01*
X0093037Y0041038D01*
X0092948Y0041076D01*
X0092860Y0041118D01*
X0092774Y0041163D01*
X0092690Y0041211D01*
X0092608Y0041263D01*
X0092529Y0041318D01*
X0092451Y0041377D01*
X0092376Y0041438D01*
X0092304Y0041503D01*
X0092234Y0041570D01*
X0092167Y0041641D01*
X0092104Y0041714D01*
X0092043Y0041789D01*
X0091985Y0041867D01*
X0091931Y0041948D01*
X0091880Y0042030D01*
X0091832Y0042115D01*
X0091788Y0042201D01*
X0091747Y0042289D01*
X0091711Y0042379D01*
X0091677Y0042470D01*
X0091648Y0042562D01*
X0091622Y0042656D01*
X0091601Y0042750D01*
X0091583Y0042846D01*
X0091569Y0042942D01*
X0091559Y0043038D01*
X0091553Y0043135D01*
X0091551Y0043232D01*
X0129543Y0027996D02*
X0129545Y0028087D01*
X0129551Y0028177D01*
X0129561Y0028268D01*
X0129575Y0028357D01*
X0129593Y0028446D01*
X0129614Y0028535D01*
X0129640Y0028622D01*
X0129669Y0028708D01*
X0129703Y0028792D01*
X0129739Y0028875D01*
X0129780Y0028957D01*
X0129824Y0029036D01*
X0129871Y0029114D01*
X0129922Y0029189D01*
X0129976Y0029262D01*
X0130033Y0029332D01*
X0130093Y0029400D01*
X0130156Y0029466D01*
X0130222Y0029528D01*
X0130291Y0029587D01*
X0130362Y0029644D01*
X0130436Y0029697D01*
X0130512Y0029747D01*
X0130590Y0029794D01*
X0130670Y0029837D01*
X0130751Y0029876D01*
X0130835Y0029912D01*
X0130920Y0029944D01*
X0131006Y0029973D01*
X0131093Y0029997D01*
X0131182Y0030018D01*
X0131271Y0030035D01*
X0131361Y0030048D01*
X0131451Y0030057D01*
X0131542Y0030062D01*
X0131633Y0030063D01*
X0131723Y0030060D01*
X0131814Y0030053D01*
X0131904Y0030042D01*
X0131994Y0030027D01*
X0132083Y0030008D01*
X0132171Y0029986D01*
X0132257Y0029959D01*
X0132343Y0029929D01*
X0132427Y0029895D01*
X0132510Y0029857D01*
X0132591Y0029816D01*
X0132670Y0029771D01*
X0132747Y0029722D01*
X0132821Y0029671D01*
X0132894Y0029616D01*
X0132964Y0029558D01*
X0133031Y0029497D01*
X0133095Y0029433D01*
X0133157Y0029367D01*
X0133216Y0029297D01*
X0133271Y0029226D01*
X0133324Y0029151D01*
X0133373Y0029075D01*
X0133419Y0028997D01*
X0133461Y0028916D01*
X0133500Y0028834D01*
X0133535Y0028750D01*
X0133566Y0028665D01*
X0133593Y0028578D01*
X0133617Y0028491D01*
X0133637Y0028402D01*
X0133653Y0028313D01*
X0133665Y0028223D01*
X0133673Y0028132D01*
X0133677Y0028041D01*
X0133677Y0027951D01*
X0133673Y0027860D01*
X0133665Y0027769D01*
X0133653Y0027679D01*
X0133637Y0027590D01*
X0133617Y0027501D01*
X0133593Y0027414D01*
X0133566Y0027327D01*
X0133535Y0027242D01*
X0133500Y0027158D01*
X0133461Y0027076D01*
X0133419Y0026995D01*
X0133373Y0026917D01*
X0133324Y0026841D01*
X0133271Y0026766D01*
X0133216Y0026695D01*
X0133157Y0026625D01*
X0133095Y0026559D01*
X0133031Y0026495D01*
X0132964Y0026434D01*
X0132894Y0026376D01*
X0132821Y0026321D01*
X0132747Y0026270D01*
X0132670Y0026221D01*
X0132591Y0026176D01*
X0132510Y0026135D01*
X0132427Y0026097D01*
X0132343Y0026063D01*
X0132257Y0026033D01*
X0132171Y0026006D01*
X0132083Y0025984D01*
X0131994Y0025965D01*
X0131904Y0025950D01*
X0131814Y0025939D01*
X0131723Y0025932D01*
X0131633Y0025929D01*
X0131542Y0025930D01*
X0131451Y0025935D01*
X0131361Y0025944D01*
X0131271Y0025957D01*
X0131182Y0025974D01*
X0131093Y0025995D01*
X0131006Y0026019D01*
X0130920Y0026048D01*
X0130835Y0026080D01*
X0130751Y0026116D01*
X0130670Y0026155D01*
X0130590Y0026198D01*
X0130512Y0026245D01*
X0130436Y0026295D01*
X0130362Y0026348D01*
X0130291Y0026405D01*
X0130222Y0026464D01*
X0130156Y0026526D01*
X0130093Y0026592D01*
X0130033Y0026660D01*
X0129976Y0026730D01*
X0129922Y0026803D01*
X0129871Y0026878D01*
X0129824Y0026956D01*
X0129780Y0027035D01*
X0129739Y0027117D01*
X0129703Y0027200D01*
X0129669Y0027284D01*
X0129640Y0027370D01*
X0129614Y0027457D01*
X0129593Y0027546D01*
X0129575Y0027635D01*
X0129561Y0027724D01*
X0129551Y0027815D01*
X0129545Y0027905D01*
X0129543Y0027996D01*
X0148638Y0027996D02*
X0148640Y0028087D01*
X0148646Y0028177D01*
X0148656Y0028268D01*
X0148670Y0028357D01*
X0148688Y0028446D01*
X0148709Y0028535D01*
X0148735Y0028622D01*
X0148764Y0028708D01*
X0148798Y0028792D01*
X0148834Y0028875D01*
X0148875Y0028957D01*
X0148919Y0029036D01*
X0148966Y0029114D01*
X0149017Y0029189D01*
X0149071Y0029262D01*
X0149128Y0029332D01*
X0149188Y0029400D01*
X0149251Y0029466D01*
X0149317Y0029528D01*
X0149386Y0029587D01*
X0149457Y0029644D01*
X0149531Y0029697D01*
X0149607Y0029747D01*
X0149685Y0029794D01*
X0149765Y0029837D01*
X0149846Y0029876D01*
X0149930Y0029912D01*
X0150015Y0029944D01*
X0150101Y0029973D01*
X0150188Y0029997D01*
X0150277Y0030018D01*
X0150366Y0030035D01*
X0150456Y0030048D01*
X0150546Y0030057D01*
X0150637Y0030062D01*
X0150728Y0030063D01*
X0150818Y0030060D01*
X0150909Y0030053D01*
X0150999Y0030042D01*
X0151089Y0030027D01*
X0151178Y0030008D01*
X0151266Y0029986D01*
X0151352Y0029959D01*
X0151438Y0029929D01*
X0151522Y0029895D01*
X0151605Y0029857D01*
X0151686Y0029816D01*
X0151765Y0029771D01*
X0151842Y0029722D01*
X0151916Y0029671D01*
X0151989Y0029616D01*
X0152059Y0029558D01*
X0152126Y0029497D01*
X0152190Y0029433D01*
X0152252Y0029367D01*
X0152311Y0029297D01*
X0152366Y0029226D01*
X0152419Y0029151D01*
X0152468Y0029075D01*
X0152514Y0028997D01*
X0152556Y0028916D01*
X0152595Y0028834D01*
X0152630Y0028750D01*
X0152661Y0028665D01*
X0152688Y0028578D01*
X0152712Y0028491D01*
X0152732Y0028402D01*
X0152748Y0028313D01*
X0152760Y0028223D01*
X0152768Y0028132D01*
X0152772Y0028041D01*
X0152772Y0027951D01*
X0152768Y0027860D01*
X0152760Y0027769D01*
X0152748Y0027679D01*
X0152732Y0027590D01*
X0152712Y0027501D01*
X0152688Y0027414D01*
X0152661Y0027327D01*
X0152630Y0027242D01*
X0152595Y0027158D01*
X0152556Y0027076D01*
X0152514Y0026995D01*
X0152468Y0026917D01*
X0152419Y0026841D01*
X0152366Y0026766D01*
X0152311Y0026695D01*
X0152252Y0026625D01*
X0152190Y0026559D01*
X0152126Y0026495D01*
X0152059Y0026434D01*
X0151989Y0026376D01*
X0151916Y0026321D01*
X0151842Y0026270D01*
X0151765Y0026221D01*
X0151686Y0026176D01*
X0151605Y0026135D01*
X0151522Y0026097D01*
X0151438Y0026063D01*
X0151352Y0026033D01*
X0151266Y0026006D01*
X0151178Y0025984D01*
X0151089Y0025965D01*
X0150999Y0025950D01*
X0150909Y0025939D01*
X0150818Y0025932D01*
X0150728Y0025929D01*
X0150637Y0025930D01*
X0150546Y0025935D01*
X0150456Y0025944D01*
X0150366Y0025957D01*
X0150277Y0025974D01*
X0150188Y0025995D01*
X0150101Y0026019D01*
X0150015Y0026048D01*
X0149930Y0026080D01*
X0149846Y0026116D01*
X0149765Y0026155D01*
X0149685Y0026198D01*
X0149607Y0026245D01*
X0149531Y0026295D01*
X0149457Y0026348D01*
X0149386Y0026405D01*
X0149317Y0026464D01*
X0149251Y0026526D01*
X0149188Y0026592D01*
X0149128Y0026660D01*
X0149071Y0026730D01*
X0149017Y0026803D01*
X0148966Y0026878D01*
X0148919Y0026956D01*
X0148875Y0027035D01*
X0148834Y0027117D01*
X0148798Y0027200D01*
X0148764Y0027284D01*
X0148735Y0027370D01*
X0148709Y0027457D01*
X0148688Y0027546D01*
X0148670Y0027635D01*
X0148656Y0027724D01*
X0148646Y0027815D01*
X0148640Y0027905D01*
X0148638Y0027996D01*
X0217614Y0192445D02*
X0217616Y0192533D01*
X0217622Y0192621D01*
X0217632Y0192709D01*
X0217646Y0192797D01*
X0217663Y0192883D01*
X0217685Y0192969D01*
X0217710Y0193053D01*
X0217740Y0193137D01*
X0217772Y0193219D01*
X0217809Y0193299D01*
X0217849Y0193378D01*
X0217893Y0193455D01*
X0217940Y0193530D01*
X0217990Y0193602D01*
X0218044Y0193673D01*
X0218100Y0193740D01*
X0218160Y0193806D01*
X0218222Y0193868D01*
X0218288Y0193928D01*
X0218355Y0193984D01*
X0218426Y0194038D01*
X0218498Y0194088D01*
X0218573Y0194135D01*
X0218650Y0194179D01*
X0218729Y0194219D01*
X0218809Y0194256D01*
X0218891Y0194288D01*
X0218975Y0194318D01*
X0219059Y0194343D01*
X0219145Y0194365D01*
X0219231Y0194382D01*
X0219319Y0194396D01*
X0219407Y0194406D01*
X0219495Y0194412D01*
X0219583Y0194414D01*
X0219671Y0194412D01*
X0219759Y0194406D01*
X0219847Y0194396D01*
X0219935Y0194382D01*
X0220021Y0194365D01*
X0220107Y0194343D01*
X0220191Y0194318D01*
X0220275Y0194288D01*
X0220357Y0194256D01*
X0220437Y0194219D01*
X0220516Y0194179D01*
X0220593Y0194135D01*
X0220668Y0194088D01*
X0220740Y0194038D01*
X0220811Y0193984D01*
X0220878Y0193928D01*
X0220944Y0193868D01*
X0221006Y0193806D01*
X0221066Y0193740D01*
X0221122Y0193673D01*
X0221176Y0193602D01*
X0221226Y0193530D01*
X0221273Y0193455D01*
X0221317Y0193378D01*
X0221357Y0193299D01*
X0221394Y0193219D01*
X0221426Y0193137D01*
X0221456Y0193053D01*
X0221481Y0192969D01*
X0221503Y0192883D01*
X0221520Y0192797D01*
X0221534Y0192709D01*
X0221544Y0192621D01*
X0221550Y0192533D01*
X0221552Y0192445D01*
X0221550Y0192357D01*
X0221544Y0192269D01*
X0221534Y0192181D01*
X0221520Y0192093D01*
X0221503Y0192007D01*
X0221481Y0191921D01*
X0221456Y0191837D01*
X0221426Y0191753D01*
X0221394Y0191671D01*
X0221357Y0191591D01*
X0221317Y0191512D01*
X0221273Y0191435D01*
X0221226Y0191360D01*
X0221176Y0191288D01*
X0221122Y0191217D01*
X0221066Y0191150D01*
X0221006Y0191084D01*
X0220944Y0191022D01*
X0220878Y0190962D01*
X0220811Y0190906D01*
X0220740Y0190852D01*
X0220668Y0190802D01*
X0220593Y0190755D01*
X0220516Y0190711D01*
X0220437Y0190671D01*
X0220357Y0190634D01*
X0220275Y0190602D01*
X0220191Y0190572D01*
X0220107Y0190547D01*
X0220021Y0190525D01*
X0219935Y0190508D01*
X0219847Y0190494D01*
X0219759Y0190484D01*
X0219671Y0190478D01*
X0219583Y0190476D01*
X0219495Y0190478D01*
X0219407Y0190484D01*
X0219319Y0190494D01*
X0219231Y0190508D01*
X0219145Y0190525D01*
X0219059Y0190547D01*
X0218975Y0190572D01*
X0218891Y0190602D01*
X0218809Y0190634D01*
X0218729Y0190671D01*
X0218650Y0190711D01*
X0218573Y0190755D01*
X0218498Y0190802D01*
X0218426Y0190852D01*
X0218355Y0190906D01*
X0218288Y0190962D01*
X0218222Y0191022D01*
X0218160Y0191084D01*
X0218100Y0191150D01*
X0218044Y0191217D01*
X0217990Y0191288D01*
X0217940Y0191360D01*
X0217893Y0191435D01*
X0217849Y0191512D01*
X0217809Y0191591D01*
X0217772Y0191671D01*
X0217740Y0191753D01*
X0217710Y0191837D01*
X0217685Y0191921D01*
X0217663Y0192007D01*
X0217646Y0192093D01*
X0217632Y0192181D01*
X0217622Y0192269D01*
X0217616Y0192357D01*
X0217614Y0192445D01*
X0217614Y0338114D02*
X0217616Y0338202D01*
X0217622Y0338290D01*
X0217632Y0338378D01*
X0217646Y0338466D01*
X0217663Y0338552D01*
X0217685Y0338638D01*
X0217710Y0338722D01*
X0217740Y0338806D01*
X0217772Y0338888D01*
X0217809Y0338968D01*
X0217849Y0339047D01*
X0217893Y0339124D01*
X0217940Y0339199D01*
X0217990Y0339271D01*
X0218044Y0339342D01*
X0218100Y0339409D01*
X0218160Y0339475D01*
X0218222Y0339537D01*
X0218288Y0339597D01*
X0218355Y0339653D01*
X0218426Y0339707D01*
X0218498Y0339757D01*
X0218573Y0339804D01*
X0218650Y0339848D01*
X0218729Y0339888D01*
X0218809Y0339925D01*
X0218891Y0339957D01*
X0218975Y0339987D01*
X0219059Y0340012D01*
X0219145Y0340034D01*
X0219231Y0340051D01*
X0219319Y0340065D01*
X0219407Y0340075D01*
X0219495Y0340081D01*
X0219583Y0340083D01*
X0219671Y0340081D01*
X0219759Y0340075D01*
X0219847Y0340065D01*
X0219935Y0340051D01*
X0220021Y0340034D01*
X0220107Y0340012D01*
X0220191Y0339987D01*
X0220275Y0339957D01*
X0220357Y0339925D01*
X0220437Y0339888D01*
X0220516Y0339848D01*
X0220593Y0339804D01*
X0220668Y0339757D01*
X0220740Y0339707D01*
X0220811Y0339653D01*
X0220878Y0339597D01*
X0220944Y0339537D01*
X0221006Y0339475D01*
X0221066Y0339409D01*
X0221122Y0339342D01*
X0221176Y0339271D01*
X0221226Y0339199D01*
X0221273Y0339124D01*
X0221317Y0339047D01*
X0221357Y0338968D01*
X0221394Y0338888D01*
X0221426Y0338806D01*
X0221456Y0338722D01*
X0221481Y0338638D01*
X0221503Y0338552D01*
X0221520Y0338466D01*
X0221534Y0338378D01*
X0221544Y0338290D01*
X0221550Y0338202D01*
X0221552Y0338114D01*
X0221550Y0338026D01*
X0221544Y0337938D01*
X0221534Y0337850D01*
X0221520Y0337762D01*
X0221503Y0337676D01*
X0221481Y0337590D01*
X0221456Y0337506D01*
X0221426Y0337422D01*
X0221394Y0337340D01*
X0221357Y0337260D01*
X0221317Y0337181D01*
X0221273Y0337104D01*
X0221226Y0337029D01*
X0221176Y0336957D01*
X0221122Y0336886D01*
X0221066Y0336819D01*
X0221006Y0336753D01*
X0220944Y0336691D01*
X0220878Y0336631D01*
X0220811Y0336575D01*
X0220740Y0336521D01*
X0220668Y0336471D01*
X0220593Y0336424D01*
X0220516Y0336380D01*
X0220437Y0336340D01*
X0220357Y0336303D01*
X0220275Y0336271D01*
X0220191Y0336241D01*
X0220107Y0336216D01*
X0220021Y0336194D01*
X0219935Y0336177D01*
X0219847Y0336163D01*
X0219759Y0336153D01*
X0219671Y0336147D01*
X0219583Y0336145D01*
X0219495Y0336147D01*
X0219407Y0336153D01*
X0219319Y0336163D01*
X0219231Y0336177D01*
X0219145Y0336194D01*
X0219059Y0336216D01*
X0218975Y0336241D01*
X0218891Y0336271D01*
X0218809Y0336303D01*
X0218729Y0336340D01*
X0218650Y0336380D01*
X0218573Y0336424D01*
X0218498Y0336471D01*
X0218426Y0336521D01*
X0218355Y0336575D01*
X0218288Y0336631D01*
X0218222Y0336691D01*
X0218160Y0336753D01*
X0218100Y0336819D01*
X0218044Y0336886D01*
X0217990Y0336957D01*
X0217940Y0337029D01*
X0217893Y0337104D01*
X0217849Y0337181D01*
X0217809Y0337260D01*
X0217772Y0337340D01*
X0217740Y0337422D01*
X0217710Y0337506D01*
X0217685Y0337590D01*
X0217663Y0337676D01*
X0217646Y0337762D01*
X0217632Y0337850D01*
X0217622Y0337938D01*
X0217616Y0338026D01*
X0217614Y0338114D01*
X0259267Y0349925D02*
X0259269Y0350078D01*
X0259275Y0350232D01*
X0259285Y0350385D01*
X0259299Y0350537D01*
X0259317Y0350690D01*
X0259339Y0350841D01*
X0259364Y0350992D01*
X0259394Y0351143D01*
X0259428Y0351293D01*
X0259465Y0351441D01*
X0259506Y0351589D01*
X0259551Y0351735D01*
X0259600Y0351881D01*
X0259653Y0352025D01*
X0259709Y0352167D01*
X0259769Y0352308D01*
X0259833Y0352448D01*
X0259900Y0352586D01*
X0259971Y0352722D01*
X0260046Y0352856D01*
X0260123Y0352988D01*
X0260205Y0353118D01*
X0260289Y0353246D01*
X0260377Y0353372D01*
X0260468Y0353495D01*
X0260562Y0353616D01*
X0260660Y0353734D01*
X0260760Y0353850D01*
X0260864Y0353963D01*
X0260970Y0354074D01*
X0261079Y0354182D01*
X0261191Y0354287D01*
X0261305Y0354388D01*
X0261423Y0354487D01*
X0261542Y0354583D01*
X0261664Y0354676D01*
X0261789Y0354765D01*
X0261916Y0354852D01*
X0262045Y0354934D01*
X0262176Y0355014D01*
X0262309Y0355090D01*
X0262444Y0355163D01*
X0262581Y0355232D01*
X0262720Y0355297D01*
X0262860Y0355359D01*
X0263002Y0355417D01*
X0263145Y0355472D01*
X0263290Y0355523D01*
X0263436Y0355570D01*
X0263583Y0355613D01*
X0263731Y0355652D01*
X0263880Y0355688D01*
X0264030Y0355719D01*
X0264181Y0355747D01*
X0264332Y0355771D01*
X0264485Y0355791D01*
X0264637Y0355807D01*
X0264790Y0355819D01*
X0264943Y0355827D01*
X0265096Y0355831D01*
X0265250Y0355831D01*
X0265403Y0355827D01*
X0265556Y0355819D01*
X0265709Y0355807D01*
X0265861Y0355791D01*
X0266014Y0355771D01*
X0266165Y0355747D01*
X0266316Y0355719D01*
X0266466Y0355688D01*
X0266615Y0355652D01*
X0266763Y0355613D01*
X0266910Y0355570D01*
X0267056Y0355523D01*
X0267201Y0355472D01*
X0267344Y0355417D01*
X0267486Y0355359D01*
X0267626Y0355297D01*
X0267765Y0355232D01*
X0267902Y0355163D01*
X0268037Y0355090D01*
X0268170Y0355014D01*
X0268301Y0354934D01*
X0268430Y0354852D01*
X0268557Y0354765D01*
X0268682Y0354676D01*
X0268804Y0354583D01*
X0268923Y0354487D01*
X0269041Y0354388D01*
X0269155Y0354287D01*
X0269267Y0354182D01*
X0269376Y0354074D01*
X0269482Y0353963D01*
X0269586Y0353850D01*
X0269686Y0353734D01*
X0269784Y0353616D01*
X0269878Y0353495D01*
X0269969Y0353372D01*
X0270057Y0353246D01*
X0270141Y0353118D01*
X0270223Y0352988D01*
X0270300Y0352856D01*
X0270375Y0352722D01*
X0270446Y0352586D01*
X0270513Y0352448D01*
X0270577Y0352308D01*
X0270637Y0352167D01*
X0270693Y0352025D01*
X0270746Y0351881D01*
X0270795Y0351735D01*
X0270840Y0351589D01*
X0270881Y0351441D01*
X0270918Y0351293D01*
X0270952Y0351143D01*
X0270982Y0350992D01*
X0271007Y0350841D01*
X0271029Y0350690D01*
X0271047Y0350537D01*
X0271061Y0350385D01*
X0271071Y0350232D01*
X0271077Y0350078D01*
X0271079Y0349925D01*
X0271077Y0349772D01*
X0271071Y0349618D01*
X0271061Y0349465D01*
X0271047Y0349313D01*
X0271029Y0349160D01*
X0271007Y0349009D01*
X0270982Y0348858D01*
X0270952Y0348707D01*
X0270918Y0348557D01*
X0270881Y0348409D01*
X0270840Y0348261D01*
X0270795Y0348115D01*
X0270746Y0347969D01*
X0270693Y0347825D01*
X0270637Y0347683D01*
X0270577Y0347542D01*
X0270513Y0347402D01*
X0270446Y0347264D01*
X0270375Y0347128D01*
X0270300Y0346994D01*
X0270223Y0346862D01*
X0270141Y0346732D01*
X0270057Y0346604D01*
X0269969Y0346478D01*
X0269878Y0346355D01*
X0269784Y0346234D01*
X0269686Y0346116D01*
X0269586Y0346000D01*
X0269482Y0345887D01*
X0269376Y0345776D01*
X0269267Y0345668D01*
X0269155Y0345563D01*
X0269041Y0345462D01*
X0268923Y0345363D01*
X0268804Y0345267D01*
X0268682Y0345174D01*
X0268557Y0345085D01*
X0268430Y0344998D01*
X0268301Y0344916D01*
X0268170Y0344836D01*
X0268037Y0344760D01*
X0267902Y0344687D01*
X0267765Y0344618D01*
X0267626Y0344553D01*
X0267486Y0344491D01*
X0267344Y0344433D01*
X0267201Y0344378D01*
X0267056Y0344327D01*
X0266910Y0344280D01*
X0266763Y0344237D01*
X0266615Y0344198D01*
X0266466Y0344162D01*
X0266316Y0344131D01*
X0266165Y0344103D01*
X0266014Y0344079D01*
X0265861Y0344059D01*
X0265709Y0344043D01*
X0265556Y0344031D01*
X0265403Y0344023D01*
X0265250Y0344019D01*
X0265096Y0344019D01*
X0264943Y0344023D01*
X0264790Y0344031D01*
X0264637Y0344043D01*
X0264485Y0344059D01*
X0264332Y0344079D01*
X0264181Y0344103D01*
X0264030Y0344131D01*
X0263880Y0344162D01*
X0263731Y0344198D01*
X0263583Y0344237D01*
X0263436Y0344280D01*
X0263290Y0344327D01*
X0263145Y0344378D01*
X0263002Y0344433D01*
X0262860Y0344491D01*
X0262720Y0344553D01*
X0262581Y0344618D01*
X0262444Y0344687D01*
X0262309Y0344760D01*
X0262176Y0344836D01*
X0262045Y0344916D01*
X0261916Y0344998D01*
X0261789Y0345085D01*
X0261664Y0345174D01*
X0261542Y0345267D01*
X0261423Y0345363D01*
X0261305Y0345462D01*
X0261191Y0345563D01*
X0261079Y0345668D01*
X0260970Y0345776D01*
X0260864Y0345887D01*
X0260760Y0346000D01*
X0260660Y0346116D01*
X0260562Y0346234D01*
X0260468Y0346355D01*
X0260377Y0346478D01*
X0260289Y0346604D01*
X0260205Y0346732D01*
X0260123Y0346862D01*
X0260046Y0346994D01*
X0259971Y0347128D01*
X0259900Y0347264D01*
X0259833Y0347402D01*
X0259769Y0347542D01*
X0259709Y0347683D01*
X0259653Y0347825D01*
X0259600Y0347969D01*
X0259551Y0348115D01*
X0259506Y0348261D01*
X0259465Y0348409D01*
X0259428Y0348557D01*
X0259394Y0348707D01*
X0259364Y0348858D01*
X0259339Y0349009D01*
X0259317Y0349160D01*
X0259299Y0349313D01*
X0259285Y0349465D01*
X0259275Y0349618D01*
X0259269Y0349772D01*
X0259267Y0349925D01*
X0099779Y0291461D02*
X0099781Y0291549D01*
X0099787Y0291637D01*
X0099797Y0291725D01*
X0099811Y0291813D01*
X0099828Y0291899D01*
X0099850Y0291985D01*
X0099875Y0292069D01*
X0099905Y0292153D01*
X0099937Y0292235D01*
X0099974Y0292315D01*
X0100014Y0292394D01*
X0100058Y0292471D01*
X0100105Y0292546D01*
X0100155Y0292618D01*
X0100209Y0292689D01*
X0100265Y0292756D01*
X0100325Y0292822D01*
X0100387Y0292884D01*
X0100453Y0292944D01*
X0100520Y0293000D01*
X0100591Y0293054D01*
X0100663Y0293104D01*
X0100738Y0293151D01*
X0100815Y0293195D01*
X0100894Y0293235D01*
X0100974Y0293272D01*
X0101056Y0293304D01*
X0101140Y0293334D01*
X0101224Y0293359D01*
X0101310Y0293381D01*
X0101396Y0293398D01*
X0101484Y0293412D01*
X0101572Y0293422D01*
X0101660Y0293428D01*
X0101748Y0293430D01*
X0101836Y0293428D01*
X0101924Y0293422D01*
X0102012Y0293412D01*
X0102100Y0293398D01*
X0102186Y0293381D01*
X0102272Y0293359D01*
X0102356Y0293334D01*
X0102440Y0293304D01*
X0102522Y0293272D01*
X0102602Y0293235D01*
X0102681Y0293195D01*
X0102758Y0293151D01*
X0102833Y0293104D01*
X0102905Y0293054D01*
X0102976Y0293000D01*
X0103043Y0292944D01*
X0103109Y0292884D01*
X0103171Y0292822D01*
X0103231Y0292756D01*
X0103287Y0292689D01*
X0103341Y0292618D01*
X0103391Y0292546D01*
X0103438Y0292471D01*
X0103482Y0292394D01*
X0103522Y0292315D01*
X0103559Y0292235D01*
X0103591Y0292153D01*
X0103621Y0292069D01*
X0103646Y0291985D01*
X0103668Y0291899D01*
X0103685Y0291813D01*
X0103699Y0291725D01*
X0103709Y0291637D01*
X0103715Y0291549D01*
X0103717Y0291461D01*
X0103715Y0291373D01*
X0103709Y0291285D01*
X0103699Y0291197D01*
X0103685Y0291109D01*
X0103668Y0291023D01*
X0103646Y0290937D01*
X0103621Y0290853D01*
X0103591Y0290769D01*
X0103559Y0290687D01*
X0103522Y0290607D01*
X0103482Y0290528D01*
X0103438Y0290451D01*
X0103391Y0290376D01*
X0103341Y0290304D01*
X0103287Y0290233D01*
X0103231Y0290166D01*
X0103171Y0290100D01*
X0103109Y0290038D01*
X0103043Y0289978D01*
X0102976Y0289922D01*
X0102905Y0289868D01*
X0102833Y0289818D01*
X0102758Y0289771D01*
X0102681Y0289727D01*
X0102602Y0289687D01*
X0102522Y0289650D01*
X0102440Y0289618D01*
X0102356Y0289588D01*
X0102272Y0289563D01*
X0102186Y0289541D01*
X0102100Y0289524D01*
X0102012Y0289510D01*
X0101924Y0289500D01*
X0101836Y0289494D01*
X0101748Y0289492D01*
X0101660Y0289494D01*
X0101572Y0289500D01*
X0101484Y0289510D01*
X0101396Y0289524D01*
X0101310Y0289541D01*
X0101224Y0289563D01*
X0101140Y0289588D01*
X0101056Y0289618D01*
X0100974Y0289650D01*
X0100894Y0289687D01*
X0100815Y0289727D01*
X0100738Y0289771D01*
X0100663Y0289818D01*
X0100591Y0289868D01*
X0100520Y0289922D01*
X0100453Y0289978D01*
X0100387Y0290038D01*
X0100325Y0290100D01*
X0100265Y0290166D01*
X0100209Y0290233D01*
X0100155Y0290304D01*
X0100105Y0290376D01*
X0100058Y0290451D01*
X0100014Y0290528D01*
X0099974Y0290607D01*
X0099937Y0290687D01*
X0099905Y0290769D01*
X0099875Y0290853D01*
X0099850Y0290937D01*
X0099828Y0291023D01*
X0099811Y0291109D01*
X0099797Y0291197D01*
X0099787Y0291285D01*
X0099781Y0291373D01*
X0099779Y0291461D01*
X0099779Y0239098D02*
X0099781Y0239186D01*
X0099787Y0239274D01*
X0099797Y0239362D01*
X0099811Y0239450D01*
X0099828Y0239536D01*
X0099850Y0239622D01*
X0099875Y0239706D01*
X0099905Y0239790D01*
X0099937Y0239872D01*
X0099974Y0239952D01*
X0100014Y0240031D01*
X0100058Y0240108D01*
X0100105Y0240183D01*
X0100155Y0240255D01*
X0100209Y0240326D01*
X0100265Y0240393D01*
X0100325Y0240459D01*
X0100387Y0240521D01*
X0100453Y0240581D01*
X0100520Y0240637D01*
X0100591Y0240691D01*
X0100663Y0240741D01*
X0100738Y0240788D01*
X0100815Y0240832D01*
X0100894Y0240872D01*
X0100974Y0240909D01*
X0101056Y0240941D01*
X0101140Y0240971D01*
X0101224Y0240996D01*
X0101310Y0241018D01*
X0101396Y0241035D01*
X0101484Y0241049D01*
X0101572Y0241059D01*
X0101660Y0241065D01*
X0101748Y0241067D01*
X0101836Y0241065D01*
X0101924Y0241059D01*
X0102012Y0241049D01*
X0102100Y0241035D01*
X0102186Y0241018D01*
X0102272Y0240996D01*
X0102356Y0240971D01*
X0102440Y0240941D01*
X0102522Y0240909D01*
X0102602Y0240872D01*
X0102681Y0240832D01*
X0102758Y0240788D01*
X0102833Y0240741D01*
X0102905Y0240691D01*
X0102976Y0240637D01*
X0103043Y0240581D01*
X0103109Y0240521D01*
X0103171Y0240459D01*
X0103231Y0240393D01*
X0103287Y0240326D01*
X0103341Y0240255D01*
X0103391Y0240183D01*
X0103438Y0240108D01*
X0103482Y0240031D01*
X0103522Y0239952D01*
X0103559Y0239872D01*
X0103591Y0239790D01*
X0103621Y0239706D01*
X0103646Y0239622D01*
X0103668Y0239536D01*
X0103685Y0239450D01*
X0103699Y0239362D01*
X0103709Y0239274D01*
X0103715Y0239186D01*
X0103717Y0239098D01*
X0103715Y0239010D01*
X0103709Y0238922D01*
X0103699Y0238834D01*
X0103685Y0238746D01*
X0103668Y0238660D01*
X0103646Y0238574D01*
X0103621Y0238490D01*
X0103591Y0238406D01*
X0103559Y0238324D01*
X0103522Y0238244D01*
X0103482Y0238165D01*
X0103438Y0238088D01*
X0103391Y0238013D01*
X0103341Y0237941D01*
X0103287Y0237870D01*
X0103231Y0237803D01*
X0103171Y0237737D01*
X0103109Y0237675D01*
X0103043Y0237615D01*
X0102976Y0237559D01*
X0102905Y0237505D01*
X0102833Y0237455D01*
X0102758Y0237408D01*
X0102681Y0237364D01*
X0102602Y0237324D01*
X0102522Y0237287D01*
X0102440Y0237255D01*
X0102356Y0237225D01*
X0102272Y0237200D01*
X0102186Y0237178D01*
X0102100Y0237161D01*
X0102012Y0237147D01*
X0101924Y0237137D01*
X0101836Y0237131D01*
X0101748Y0237129D01*
X0101660Y0237131D01*
X0101572Y0237137D01*
X0101484Y0237147D01*
X0101396Y0237161D01*
X0101310Y0237178D01*
X0101224Y0237200D01*
X0101140Y0237225D01*
X0101056Y0237255D01*
X0100974Y0237287D01*
X0100894Y0237324D01*
X0100815Y0237364D01*
X0100738Y0237408D01*
X0100663Y0237455D01*
X0100591Y0237505D01*
X0100520Y0237559D01*
X0100453Y0237615D01*
X0100387Y0237675D01*
X0100325Y0237737D01*
X0100265Y0237803D01*
X0100209Y0237870D01*
X0100155Y0237941D01*
X0100105Y0238013D01*
X0100058Y0238088D01*
X0100014Y0238165D01*
X0099974Y0238244D01*
X0099937Y0238324D01*
X0099905Y0238406D01*
X0099875Y0238490D01*
X0099850Y0238574D01*
X0099828Y0238660D01*
X0099811Y0238746D01*
X0099797Y0238834D01*
X0099787Y0238922D01*
X0099781Y0239010D01*
X0099779Y0239098D01*
X0034543Y0192445D02*
X0034545Y0192533D01*
X0034551Y0192621D01*
X0034561Y0192709D01*
X0034575Y0192797D01*
X0034592Y0192883D01*
X0034614Y0192969D01*
X0034639Y0193053D01*
X0034669Y0193137D01*
X0034701Y0193219D01*
X0034738Y0193299D01*
X0034778Y0193378D01*
X0034822Y0193455D01*
X0034869Y0193530D01*
X0034919Y0193602D01*
X0034973Y0193673D01*
X0035029Y0193740D01*
X0035089Y0193806D01*
X0035151Y0193868D01*
X0035217Y0193928D01*
X0035284Y0193984D01*
X0035355Y0194038D01*
X0035427Y0194088D01*
X0035502Y0194135D01*
X0035579Y0194179D01*
X0035658Y0194219D01*
X0035738Y0194256D01*
X0035820Y0194288D01*
X0035904Y0194318D01*
X0035988Y0194343D01*
X0036074Y0194365D01*
X0036160Y0194382D01*
X0036248Y0194396D01*
X0036336Y0194406D01*
X0036424Y0194412D01*
X0036512Y0194414D01*
X0036600Y0194412D01*
X0036688Y0194406D01*
X0036776Y0194396D01*
X0036864Y0194382D01*
X0036950Y0194365D01*
X0037036Y0194343D01*
X0037120Y0194318D01*
X0037204Y0194288D01*
X0037286Y0194256D01*
X0037366Y0194219D01*
X0037445Y0194179D01*
X0037522Y0194135D01*
X0037597Y0194088D01*
X0037669Y0194038D01*
X0037740Y0193984D01*
X0037807Y0193928D01*
X0037873Y0193868D01*
X0037935Y0193806D01*
X0037995Y0193740D01*
X0038051Y0193673D01*
X0038105Y0193602D01*
X0038155Y0193530D01*
X0038202Y0193455D01*
X0038246Y0193378D01*
X0038286Y0193299D01*
X0038323Y0193219D01*
X0038355Y0193137D01*
X0038385Y0193053D01*
X0038410Y0192969D01*
X0038432Y0192883D01*
X0038449Y0192797D01*
X0038463Y0192709D01*
X0038473Y0192621D01*
X0038479Y0192533D01*
X0038481Y0192445D01*
X0038479Y0192357D01*
X0038473Y0192269D01*
X0038463Y0192181D01*
X0038449Y0192093D01*
X0038432Y0192007D01*
X0038410Y0191921D01*
X0038385Y0191837D01*
X0038355Y0191753D01*
X0038323Y0191671D01*
X0038286Y0191591D01*
X0038246Y0191512D01*
X0038202Y0191435D01*
X0038155Y0191360D01*
X0038105Y0191288D01*
X0038051Y0191217D01*
X0037995Y0191150D01*
X0037935Y0191084D01*
X0037873Y0191022D01*
X0037807Y0190962D01*
X0037740Y0190906D01*
X0037669Y0190852D01*
X0037597Y0190802D01*
X0037522Y0190755D01*
X0037445Y0190711D01*
X0037366Y0190671D01*
X0037286Y0190634D01*
X0037204Y0190602D01*
X0037120Y0190572D01*
X0037036Y0190547D01*
X0036950Y0190525D01*
X0036864Y0190508D01*
X0036776Y0190494D01*
X0036688Y0190484D01*
X0036600Y0190478D01*
X0036512Y0190476D01*
X0036424Y0190478D01*
X0036336Y0190484D01*
X0036248Y0190494D01*
X0036160Y0190508D01*
X0036074Y0190525D01*
X0035988Y0190547D01*
X0035904Y0190572D01*
X0035820Y0190602D01*
X0035738Y0190634D01*
X0035658Y0190671D01*
X0035579Y0190711D01*
X0035502Y0190755D01*
X0035427Y0190802D01*
X0035355Y0190852D01*
X0035284Y0190906D01*
X0035217Y0190962D01*
X0035151Y0191022D01*
X0035089Y0191084D01*
X0035029Y0191150D01*
X0034973Y0191217D01*
X0034919Y0191288D01*
X0034869Y0191360D01*
X0034822Y0191435D01*
X0034778Y0191512D01*
X0034738Y0191591D01*
X0034701Y0191671D01*
X0034669Y0191753D01*
X0034639Y0191837D01*
X0034614Y0191921D01*
X0034592Y0192007D01*
X0034575Y0192093D01*
X0034561Y0192181D01*
X0034551Y0192269D01*
X0034545Y0192357D01*
X0034543Y0192445D01*
X0034543Y0338114D02*
X0034545Y0338202D01*
X0034551Y0338290D01*
X0034561Y0338378D01*
X0034575Y0338466D01*
X0034592Y0338552D01*
X0034614Y0338638D01*
X0034639Y0338722D01*
X0034669Y0338806D01*
X0034701Y0338888D01*
X0034738Y0338968D01*
X0034778Y0339047D01*
X0034822Y0339124D01*
X0034869Y0339199D01*
X0034919Y0339271D01*
X0034973Y0339342D01*
X0035029Y0339409D01*
X0035089Y0339475D01*
X0035151Y0339537D01*
X0035217Y0339597D01*
X0035284Y0339653D01*
X0035355Y0339707D01*
X0035427Y0339757D01*
X0035502Y0339804D01*
X0035579Y0339848D01*
X0035658Y0339888D01*
X0035738Y0339925D01*
X0035820Y0339957D01*
X0035904Y0339987D01*
X0035988Y0340012D01*
X0036074Y0340034D01*
X0036160Y0340051D01*
X0036248Y0340065D01*
X0036336Y0340075D01*
X0036424Y0340081D01*
X0036512Y0340083D01*
X0036600Y0340081D01*
X0036688Y0340075D01*
X0036776Y0340065D01*
X0036864Y0340051D01*
X0036950Y0340034D01*
X0037036Y0340012D01*
X0037120Y0339987D01*
X0037204Y0339957D01*
X0037286Y0339925D01*
X0037366Y0339888D01*
X0037445Y0339848D01*
X0037522Y0339804D01*
X0037597Y0339757D01*
X0037669Y0339707D01*
X0037740Y0339653D01*
X0037807Y0339597D01*
X0037873Y0339537D01*
X0037935Y0339475D01*
X0037995Y0339409D01*
X0038051Y0339342D01*
X0038105Y0339271D01*
X0038155Y0339199D01*
X0038202Y0339124D01*
X0038246Y0339047D01*
X0038286Y0338968D01*
X0038323Y0338888D01*
X0038355Y0338806D01*
X0038385Y0338722D01*
X0038410Y0338638D01*
X0038432Y0338552D01*
X0038449Y0338466D01*
X0038463Y0338378D01*
X0038473Y0338290D01*
X0038479Y0338202D01*
X0038481Y0338114D01*
X0038479Y0338026D01*
X0038473Y0337938D01*
X0038463Y0337850D01*
X0038449Y0337762D01*
X0038432Y0337676D01*
X0038410Y0337590D01*
X0038385Y0337506D01*
X0038355Y0337422D01*
X0038323Y0337340D01*
X0038286Y0337260D01*
X0038246Y0337181D01*
X0038202Y0337104D01*
X0038155Y0337029D01*
X0038105Y0336957D01*
X0038051Y0336886D01*
X0037995Y0336819D01*
X0037935Y0336753D01*
X0037873Y0336691D01*
X0037807Y0336631D01*
X0037740Y0336575D01*
X0037669Y0336521D01*
X0037597Y0336471D01*
X0037522Y0336424D01*
X0037445Y0336380D01*
X0037366Y0336340D01*
X0037286Y0336303D01*
X0037204Y0336271D01*
X0037120Y0336241D01*
X0037036Y0336216D01*
X0036950Y0336194D01*
X0036864Y0336177D01*
X0036776Y0336163D01*
X0036688Y0336153D01*
X0036600Y0336147D01*
X0036512Y0336145D01*
X0036424Y0336147D01*
X0036336Y0336153D01*
X0036248Y0336163D01*
X0036160Y0336177D01*
X0036074Y0336194D01*
X0035988Y0336216D01*
X0035904Y0336241D01*
X0035820Y0336271D01*
X0035738Y0336303D01*
X0035658Y0336340D01*
X0035579Y0336380D01*
X0035502Y0336424D01*
X0035427Y0336471D01*
X0035355Y0336521D01*
X0035284Y0336575D01*
X0035217Y0336631D01*
X0035151Y0336691D01*
X0035089Y0336753D01*
X0035029Y0336819D01*
X0034973Y0336886D01*
X0034919Y0336957D01*
X0034869Y0337029D01*
X0034822Y0337104D01*
X0034778Y0337181D01*
X0034738Y0337260D01*
X0034701Y0337340D01*
X0034669Y0337422D01*
X0034639Y0337506D01*
X0034614Y0337590D01*
X0034592Y0337676D01*
X0034575Y0337762D01*
X0034561Y0337850D01*
X0034551Y0337938D01*
X0034545Y0338026D01*
X0034543Y0338114D01*
X0011236Y0349925D02*
X0011238Y0350078D01*
X0011244Y0350232D01*
X0011254Y0350385D01*
X0011268Y0350537D01*
X0011286Y0350690D01*
X0011308Y0350841D01*
X0011333Y0350992D01*
X0011363Y0351143D01*
X0011397Y0351293D01*
X0011434Y0351441D01*
X0011475Y0351589D01*
X0011520Y0351735D01*
X0011569Y0351881D01*
X0011622Y0352025D01*
X0011678Y0352167D01*
X0011738Y0352308D01*
X0011802Y0352448D01*
X0011869Y0352586D01*
X0011940Y0352722D01*
X0012015Y0352856D01*
X0012092Y0352988D01*
X0012174Y0353118D01*
X0012258Y0353246D01*
X0012346Y0353372D01*
X0012437Y0353495D01*
X0012531Y0353616D01*
X0012629Y0353734D01*
X0012729Y0353850D01*
X0012833Y0353963D01*
X0012939Y0354074D01*
X0013048Y0354182D01*
X0013160Y0354287D01*
X0013274Y0354388D01*
X0013392Y0354487D01*
X0013511Y0354583D01*
X0013633Y0354676D01*
X0013758Y0354765D01*
X0013885Y0354852D01*
X0014014Y0354934D01*
X0014145Y0355014D01*
X0014278Y0355090D01*
X0014413Y0355163D01*
X0014550Y0355232D01*
X0014689Y0355297D01*
X0014829Y0355359D01*
X0014971Y0355417D01*
X0015114Y0355472D01*
X0015259Y0355523D01*
X0015405Y0355570D01*
X0015552Y0355613D01*
X0015700Y0355652D01*
X0015849Y0355688D01*
X0015999Y0355719D01*
X0016150Y0355747D01*
X0016301Y0355771D01*
X0016454Y0355791D01*
X0016606Y0355807D01*
X0016759Y0355819D01*
X0016912Y0355827D01*
X0017065Y0355831D01*
X0017219Y0355831D01*
X0017372Y0355827D01*
X0017525Y0355819D01*
X0017678Y0355807D01*
X0017830Y0355791D01*
X0017983Y0355771D01*
X0018134Y0355747D01*
X0018285Y0355719D01*
X0018435Y0355688D01*
X0018584Y0355652D01*
X0018732Y0355613D01*
X0018879Y0355570D01*
X0019025Y0355523D01*
X0019170Y0355472D01*
X0019313Y0355417D01*
X0019455Y0355359D01*
X0019595Y0355297D01*
X0019734Y0355232D01*
X0019871Y0355163D01*
X0020006Y0355090D01*
X0020139Y0355014D01*
X0020270Y0354934D01*
X0020399Y0354852D01*
X0020526Y0354765D01*
X0020651Y0354676D01*
X0020773Y0354583D01*
X0020892Y0354487D01*
X0021010Y0354388D01*
X0021124Y0354287D01*
X0021236Y0354182D01*
X0021345Y0354074D01*
X0021451Y0353963D01*
X0021555Y0353850D01*
X0021655Y0353734D01*
X0021753Y0353616D01*
X0021847Y0353495D01*
X0021938Y0353372D01*
X0022026Y0353246D01*
X0022110Y0353118D01*
X0022192Y0352988D01*
X0022269Y0352856D01*
X0022344Y0352722D01*
X0022415Y0352586D01*
X0022482Y0352448D01*
X0022546Y0352308D01*
X0022606Y0352167D01*
X0022662Y0352025D01*
X0022715Y0351881D01*
X0022764Y0351735D01*
X0022809Y0351589D01*
X0022850Y0351441D01*
X0022887Y0351293D01*
X0022921Y0351143D01*
X0022951Y0350992D01*
X0022976Y0350841D01*
X0022998Y0350690D01*
X0023016Y0350537D01*
X0023030Y0350385D01*
X0023040Y0350232D01*
X0023046Y0350078D01*
X0023048Y0349925D01*
X0023046Y0349772D01*
X0023040Y0349618D01*
X0023030Y0349465D01*
X0023016Y0349313D01*
X0022998Y0349160D01*
X0022976Y0349009D01*
X0022951Y0348858D01*
X0022921Y0348707D01*
X0022887Y0348557D01*
X0022850Y0348409D01*
X0022809Y0348261D01*
X0022764Y0348115D01*
X0022715Y0347969D01*
X0022662Y0347825D01*
X0022606Y0347683D01*
X0022546Y0347542D01*
X0022482Y0347402D01*
X0022415Y0347264D01*
X0022344Y0347128D01*
X0022269Y0346994D01*
X0022192Y0346862D01*
X0022110Y0346732D01*
X0022026Y0346604D01*
X0021938Y0346478D01*
X0021847Y0346355D01*
X0021753Y0346234D01*
X0021655Y0346116D01*
X0021555Y0346000D01*
X0021451Y0345887D01*
X0021345Y0345776D01*
X0021236Y0345668D01*
X0021124Y0345563D01*
X0021010Y0345462D01*
X0020892Y0345363D01*
X0020773Y0345267D01*
X0020651Y0345174D01*
X0020526Y0345085D01*
X0020399Y0344998D01*
X0020270Y0344916D01*
X0020139Y0344836D01*
X0020006Y0344760D01*
X0019871Y0344687D01*
X0019734Y0344618D01*
X0019595Y0344553D01*
X0019455Y0344491D01*
X0019313Y0344433D01*
X0019170Y0344378D01*
X0019025Y0344327D01*
X0018879Y0344280D01*
X0018732Y0344237D01*
X0018584Y0344198D01*
X0018435Y0344162D01*
X0018285Y0344131D01*
X0018134Y0344103D01*
X0017983Y0344079D01*
X0017830Y0344059D01*
X0017678Y0344043D01*
X0017525Y0344031D01*
X0017372Y0344023D01*
X0017219Y0344019D01*
X0017065Y0344019D01*
X0016912Y0344023D01*
X0016759Y0344031D01*
X0016606Y0344043D01*
X0016454Y0344059D01*
X0016301Y0344079D01*
X0016150Y0344103D01*
X0015999Y0344131D01*
X0015849Y0344162D01*
X0015700Y0344198D01*
X0015552Y0344237D01*
X0015405Y0344280D01*
X0015259Y0344327D01*
X0015114Y0344378D01*
X0014971Y0344433D01*
X0014829Y0344491D01*
X0014689Y0344553D01*
X0014550Y0344618D01*
X0014413Y0344687D01*
X0014278Y0344760D01*
X0014145Y0344836D01*
X0014014Y0344916D01*
X0013885Y0344998D01*
X0013758Y0345085D01*
X0013633Y0345174D01*
X0013511Y0345267D01*
X0013392Y0345363D01*
X0013274Y0345462D01*
X0013160Y0345563D01*
X0013048Y0345668D01*
X0012939Y0345776D01*
X0012833Y0345887D01*
X0012729Y0346000D01*
X0012629Y0346116D01*
X0012531Y0346234D01*
X0012437Y0346355D01*
X0012346Y0346478D01*
X0012258Y0346604D01*
X0012174Y0346732D01*
X0012092Y0346862D01*
X0012015Y0346994D01*
X0011940Y0347128D01*
X0011869Y0347264D01*
X0011802Y0347402D01*
X0011738Y0347542D01*
X0011678Y0347683D01*
X0011622Y0347825D01*
X0011569Y0347969D01*
X0011520Y0348115D01*
X0011475Y0348261D01*
X0011434Y0348409D01*
X0011397Y0348557D01*
X0011363Y0348707D01*
X0011333Y0348858D01*
X0011308Y0349009D01*
X0011286Y0349160D01*
X0011268Y0349313D01*
X0011254Y0349465D01*
X0011244Y0349618D01*
X0011238Y0349772D01*
X0011236Y0349925D01*
M02*
