G75*
%MOIN*%
%OFA0B0*%
%FSLAX25Y25*%
%IPPOS*%
%LPD*%
%AMOC8*
5,1,8,0,0,1.08239X$1,22.5*
%
%ADD10C,0.12611*%
%ADD11R,0.10643X0.05524*%
%ADD12C,0.05524*%
%ADD13R,0.05918X0.07099*%
%ADD14R,0.08674X0.06706*%
%ADD15R,0.02375X0.07690*%
%ADD16R,0.08674X0.08674*%
%ADD17C,0.04934*%
%ADD18R,0.10800X0.20800*%
%ADD19R,0.03162X0.04343*%
%ADD20R,0.07493X0.08674*%
%ADD21R,0.06706X0.05918*%
%ADD22R,0.05918X0.06706*%
%ADD23R,0.14580X0.05918*%
%ADD24R,0.04737X0.05800*%
%ADD25C,0.04737*%
%ADD26R,0.05800X0.04300*%
%ADD27R,0.03900X0.06500*%
%ADD28C,0.06706*%
%ADD29R,0.13398X0.05524*%
%ADD30R,0.04300X0.05800*%
%ADD31R,0.06500X0.03900*%
%ADD32C,0.08200*%
%ADD33C,0.10800*%
%ADD34C,0.03778*%
%ADD35C,0.16611*%
D10*
X0017142Y0022366D03*
X0173638Y0023154D03*
X0173638Y0251500D03*
X0265173Y0349925D03*
X0017142Y0349925D03*
D11*
X0081118Y0053862D03*
X0106709Y0049531D03*
X0106709Y0033783D03*
X0106709Y0021972D03*
D12*
X0093913Y0015673D03*
X0093913Y0043232D03*
D13*
X0044504Y0044807D03*
X0037024Y0044807D03*
X0215961Y0279335D03*
X0223835Y0279335D03*
X0213992Y0322366D03*
X0206118Y0322366D03*
X0208283Y0345988D03*
X0215764Y0345988D03*
X0227969Y0345988D03*
X0235449Y0345988D03*
D14*
X0063598Y0060555D03*
X0063598Y0048744D03*
X0026984Y0044807D03*
X0026984Y0056618D03*
D15*
X0136039Y0027189D03*
X0138598Y0027189D03*
X0141157Y0027189D03*
X0143717Y0027189D03*
X0146276Y0027189D03*
D16*
X0151886Y0016067D03*
X0130429Y0016067D03*
D17*
X0131610Y0027996D03*
X0150705Y0027996D03*
D18*
X0059583Y0027839D03*
X0040488Y0027839D03*
D19*
X0214189Y0306028D03*
X0217929Y0306028D03*
X0221669Y0306028D03*
X0221669Y0315083D03*
X0217929Y0315083D03*
X0214189Y0315083D03*
D20*
X0233717Y0297996D03*
X0233717Y0279886D03*
D21*
X0206118Y0289098D03*
X0206118Y0296579D03*
X0182496Y0302878D03*
X0182496Y0310358D03*
D22*
X0172457Y0310555D03*
X0172457Y0302681D03*
X0172457Y0294807D03*
X0172457Y0286933D03*
X0172457Y0279059D03*
X0164976Y0279059D03*
X0164976Y0286933D03*
X0164976Y0294807D03*
X0164976Y0302681D03*
X0164976Y0310555D03*
X0168913Y0345988D03*
X0176394Y0345988D03*
X0176394Y0353862D03*
X0168913Y0353862D03*
X0182693Y0353862D03*
X0190173Y0353862D03*
X0190173Y0345988D03*
X0182693Y0345988D03*
X0214189Y0296776D03*
X0221669Y0296776D03*
D23*
X0233677Y0306224D03*
X0233677Y0314886D03*
D24*
X0190173Y0286933D03*
X0182693Y0286933D03*
X0186433Y0279059D03*
D25*
X0219583Y0338114D03*
X0219583Y0192445D03*
X0119504Y0059187D03*
X0125409Y0045576D03*
X0076197Y0086146D03*
X0070291Y0080624D03*
X0013205Y0056618D03*
X0036512Y0192445D03*
X0101748Y0239098D03*
X0101748Y0291461D03*
X0036512Y0338114D03*
D26*
X0262488Y0333585D03*
X0262488Y0315085D03*
X0262488Y0294215D03*
X0262488Y0275715D03*
D27*
X0269938Y0271665D03*
X0269938Y0298265D03*
X0269938Y0311035D03*
X0269938Y0337635D03*
D28*
X0145094Y0052681D03*
X0137220Y0052681D03*
X0125409Y0032996D03*
X0156906Y0032996D03*
X0034858Y0066461D03*
X0025016Y0135358D03*
D29*
X0163795Y0133311D03*
X0163795Y0123311D03*
X0163795Y0113311D03*
X0163795Y0103311D03*
X0163795Y0093311D03*
X0163795Y0083311D03*
X0163795Y0073311D03*
X0163795Y0063311D03*
X0163795Y0053311D03*
X0163795Y0043311D03*
X0183480Y0043311D03*
X0183480Y0053311D03*
X0183480Y0063311D03*
X0183480Y0073311D03*
X0183480Y0083311D03*
X0183480Y0093311D03*
X0183480Y0103311D03*
X0183480Y0113311D03*
X0183480Y0123311D03*
X0183480Y0133311D03*
X0183480Y0143311D03*
X0183480Y0153311D03*
X0183480Y0163311D03*
X0183480Y0173311D03*
X0183480Y0183311D03*
X0183480Y0193311D03*
X0183480Y0203311D03*
X0183480Y0213311D03*
X0183480Y0223311D03*
X0183480Y0233311D03*
X0163795Y0233311D03*
X0163795Y0223311D03*
X0163795Y0213311D03*
X0163795Y0203311D03*
X0163795Y0193311D03*
X0163795Y0183311D03*
X0163795Y0173311D03*
X0163795Y0163311D03*
X0163795Y0153311D03*
X0163795Y0143311D03*
D30*
X0051982Y0347240D03*
X0033482Y0347240D03*
D31*
X0029432Y0354690D03*
X0056032Y0354690D03*
D32*
X0131157Y0334177D03*
X0141157Y0334177D03*
X0151157Y0334177D03*
D33*
X0245488Y0326303D03*
X0245488Y0288902D03*
X0245488Y0277091D03*
D34*
X0257791Y0271677D03*
X0262220Y0311047D03*
X0235154Y0340575D03*
X0227772Y0357799D03*
X0215961Y0357799D03*
X0208087Y0340575D03*
X0184465Y0336146D03*
X0180528Y0332209D03*
X0176591Y0336146D03*
X0190862Y0292839D03*
X0206118Y0284965D03*
X0223835Y0273154D03*
X0192831Y0243626D03*
X0182988Y0227878D03*
X0194307Y0209177D03*
X0189386Y0208193D03*
X0209563Y0220004D03*
X0243520Y0174728D03*
X0237614Y0160435D03*
X0239114Y0147683D03*
X0235646Y0145201D03*
X0249425Y0145201D03*
X0249425Y0151106D03*
X0253362Y0139295D03*
X0253362Y0107799D03*
X0249917Y0105831D03*
X0242260Y0109768D03*
X0235646Y0086146D03*
X0221987Y0103862D03*
X0223955Y0109768D03*
X0221987Y0115673D03*
X0212024Y0109768D03*
X0198266Y0103862D03*
X0195761Y0094020D03*
X0179051Y0088606D03*
X0174622Y0102386D03*
X0174622Y0113213D03*
X0174622Y0119610D03*
X0192339Y0123547D03*
X0198244Y0119490D03*
X0212024Y0086146D03*
X0198244Y0064492D03*
X0201689Y0059079D03*
X0194307Y0058707D03*
X0172161Y0059079D03*
X0156906Y0088114D03*
X0154937Y0107799D03*
X0147588Y0123022D03*
X0146079Y0128961D03*
X0139189Y0123547D03*
X0165764Y0158488D03*
X0171669Y0178173D03*
X0144602Y0200319D03*
X0159366Y0218528D03*
X0151984Y0235752D03*
X0168224Y0268232D03*
X0176591Y0273154D03*
X0180528Y0275002D03*
X0139189Y0279059D03*
X0139189Y0286933D03*
X0139189Y0294807D03*
X0133283Y0302681D03*
X0129346Y0310555D03*
X0131315Y0326303D03*
X0111630Y0281028D03*
X0111630Y0265280D03*
X0118520Y0263311D03*
X0122949Y0264787D03*
X0116059Y0189984D03*
X0123441Y0178665D03*
X0113106Y0167839D03*
X0109169Y0167839D03*
X0070291Y0121087D03*
X0073244Y0118626D03*
X0067339Y0112720D03*
X0060941Y0109768D03*
X0045193Y0095004D03*
X0031413Y0097957D03*
X0026984Y0084177D03*
X0054543Y0072366D03*
X0066354Y0043331D03*
X0107693Y0042839D03*
X0107693Y0054650D03*
X0237614Y0058587D03*
X0259268Y0058587D03*
X0056020Y0346972D03*
D35*
X0264189Y0251500D03*
X0264189Y0023154D03*
M02*
